<?xml version="1.0" encoding="utf-8"?>
<!-- Generator: Adobe Illustrator 18.1.1, SVG Export Plug-In . SVG Version: 6.00 Build 0)  -->
<svg version="1.1" id="Layer_1" xmlns="http://www.w3.org/2000/svg" xmlns:xlink="http://www.w3.org/1999/xlink" x="0px" y="0px"
	 width="180px" height="60px" viewBox="0 0 180 60" style="enable-background:new 0 0 180 60;" xml:space="preserve">
<style type="text/css">
	.st0{opacity:0.4;}
	.st1{opacity:0.3;}
	.st2{opacity:0.2;}
	.st3{opacity:0.1;}
	.st4{opacity:0.05;}
	.st5{fill:url(#);}
	.st6{fill:#73420E;}
	.st7{fill:#F4C990;}
	.st8{fill:#AA772D;}
	.st9{fill:#C18C36;}
	.st10{opacity:0.25;}
	.st11{fill:url(#SVGID_1_);}
	.st12{fill:#730000;}
	.st13{fill:url(#SVGID_2_);}
	.st14{opacity:0.05;fill:#993300;}
	.st15{fill:url(#SVGID_3_);}
	.st16{fill:url(#SVGID_4_);}
	.st17{fill:#990000;}
	.st18{fill:url(#SVGID_5_);}
	.st19{fill:url(#SVGID_6_);}
	.st20{fill:url(#SVGID_7_);}
	.st21{fill:url(#SVGID_8_);}
	.st22{fill:url(#SVGID_9_);}
	.st23{fill:#262626;}
	.st24{fill:url(#SVGID_10_);}
	.st25{fill:url(#SVGID_11_);}
	.st26{fill:url(#SVGID_12_);}
	.st27{fill:#333333;}
	.st28{fill:url(#SVGID_13_);}
	.st29{fill:url(#SVGID_14_);}
	.st30{fill:url(#SVGID_15_);}
	.st31{fill:url(#SVGID_16_);}
	.st32{fill:#086700;}
	.st33{fill:url(#SVGID_17_);}
	.st34{fill:url(#SVGID_18_);}
	.st35{fill:url(#SVGID_19_);}
	.st36{fill:url(#SVGID_20_);}
	.st37{fill:url(#SVGID_21_);}
	.st38{fill:url(#SVGID_22_);}
	.st39{fill:url(#SVGID_23_);}
	.st40{fill:url(#SVGID_24_);}
	.st41{fill:url(#SVGID_25_);}
	.st42{fill:url(#SVGID_26_);}
	.st43{fill:url(#SVGID_27_);}
	.st44{fill:url(#SVGID_28_);}
	.st45{fill:url(#SVGID_29_);}
	.st46{fill:url(#SVGID_30_);}
	.st47{fill:url(#SVGID_31_);}
	.st48{fill:url(#SVGID_32_);}
	.st49{fill:url(#SVGID_33_);}
	.st50{fill:url(#SVGID_34_);}
	.st51{fill:url(#SVGID_35_);}
	.st52{fill:url(#SVGID_36_);}
	.st53{fill:url(#SVGID_37_);}
	.st54{fill:url(#SVGID_38_);}
	.st55{fill:url(#SVGID_39_);}
	.st56{fill:url(#SVGID_40_);}
	.st57{fill:url(#SVGID_41_);}
	.st58{fill:url(#SVGID_42_);}
	.st59{fill:url(#SVGID_43_);}
	.st60{opacity:0.45;}
	.st61{fill:url(#SVGID_44_);}
	.st62{fill:url(#SVGID_45_);}
	.st63{fill:url(#SVGID_46_);}
	.st64{fill:url(#SVGID_47_);}
	.st65{opacity:0.35;fill:url(#SVGID_48_);}
	.st66{fill:url(#SVGID_49_);}
	.st67{fill:#FFFFFF;}
	.st68{fill:#666666;}
	.st69{fill:#FFFF00;}
	.st70{fill:#99FF00;}
	.st71{opacity:0.75;}
	.st72{fill:#FF0000;}
	.st73{display:none;fill:url(#SVGID_50_);}
	.st74{display:none;fill:url(#SVGID_51_);}
	.st75{fill:url(#Inside_Line_1_);}
	.st76{clip-path:url(#SVGID_52_);}
	.st77{fill:url(#SVGID_53_);}
	.st78{fill:#999999;}
	.st79{fill:url(#SVGID_54_);}
	.st80{opacity:0.5;fill:#FFFFFF;}
	.st81{fill:url(#SVGID_55_);}
	.st82{fill:url(#SVGID_56_);}
	.st83{opacity:0.15;fill:#FFFFFF;}
	.st84{fill:url(#SVGID_57_);}
	.st85{fill:url(#SVGID_58_);}
	.st86{fill:url(#SVGID_59_);}
	.st87{fill:url(#SVGID_60_);}
	.st88{fill:url(#SVGID_61_);}
	.st89{fill:url(#SVGID_62_);}
	.st90{fill:url(#SVGID_63_);}
	.st91{fill:url(#SVGID_64_);}
	.st92{fill:url(#SVGID_65_);}
	.st93{fill:url(#SVGID_66_);}
	.st94{fill:url(#SVGID_67_);}
	.st95{fill:url(#SVGID_68_);}
	.st96{fill:url(#SVGID_69_);}
	.st97{fill:url(#SVGID_70_);}
	.st98{fill:url(#SVGID_71_);}
	.st99{fill:url(#SVGID_72_);}
	.st100{fill:url(#SVGID_73_);}
	.st101{fill:url(#SVGID_74_);}
	.st102{fill:url(#SVGID_75_);}
	.st103{fill:url(#SVGID_76_);}
	.st104{fill:url(#SVGID_77_);}
	.st105{fill:url(#SVGID_78_);}
	.st106{fill:url(#SVGID_79_);}
	.st107{fill:url(#SVGID_80_);}
	.st108{fill:url(#SVGID_81_);}
	.st109{fill:url(#SVGID_82_);}
	.st110{fill:#00CC00;}
	.st111{fill:url(#SVGID_83_);}
	.st112{fill:url(#SVGID_84_);}
	.st113{fill:url(#SVGID_86_);}
	.st114{fill:url(#SVGID_87_);}
	.st115{fill:url(#SVGID_88_);}
	.st116{fill:url(#SVGID_89_);}
	.st117{fill:#1B1B1B;}
	.st118{fill:url(#SVGID_90_);}
	.st119{fill:url(#SVGID_91_);}
	.st120{fill:url(#SVGID_92_);}
	.st121{fill:#FF9900;}
	.st122{fill:url(#SVGID_93_);}
	.st123{fill:url(#SVGID_94_);}
	.st124{fill:url(#SVGID_95_);}
	.st125{fill:url(#SVGID_96_);}
	.st126{fill:url(#SVGID_97_);}
	.st127{fill:url(#SVGID_98_);}
	.st128{fill:url(#SVGID_99_);}
	.st129{fill:url(#SVGID_100_);}
	.st130{fill:url(#SVGID_101_);}
	.st131{fill:url(#SVGID_102_);}
	.st132{fill:url(#SVGID_103_);}
	.st133{fill:url(#SVGID_104_);}
	.st134{fill:url(#SVGID_105_);}
</style>
<g>
	<path id="Main_1_" class="st10" d="M164.386,6.154H12.614c-5.037,0-9.135,4.098-9.135,9.136v1.004v9.376v5.831V47.71
		c0,5.038,4.098,9.136,9.135,9.136h151.771c5.037,0,9.135-4.098,9.135-9.136V31.501v-5.831v-9.376V15.29
		C173.52,10.253,169.422,6.154,164.386,6.154z"/>
	<path id="Main" d="M167.386,3.154H15.614c-5.037,0-9.135,4.098-9.135,9.136v1.004v9.376v5.831V44.71
		c0,5.038,4.098,9.136,9.135,9.136h151.771c5.037,0,9.135-4.098,9.135-9.136V28.501v-5.831v-9.376V12.29
		C176.52,7.253,172.422,3.154,167.386,3.154z"/>
	<path id="Top_Shine" class="st27" d="M167.386,6.395H15.614c-3.795,0-6.896,3.104-6.896,6.899v15.207h165.563V13.294
		C174.282,9.499,171.181,6.395,167.386,6.395z"/>
	<path id="Highlight" class="st68" d="M15.614,6.395h151.771c3.795,0,6.896,3.104,6.896,6.899V12.29
		c0-3.793-3.101-6.897-6.896-6.897H15.614c-3.795,0-6.896,3.104-6.896,6.897v1.004C8.718,9.499,11.82,6.395,15.614,6.395z"/>
	<g>
		<path d="M67.068,20.644c-1.267-0.896-3.072-1.35-5.535-1.385h-6.426c-0.441,0-0.813,0.329-0.866,0.768l-0.242,2.013
			c-0.026,0.22,0.031,0.441,0.163,0.62c0.25,0.341,0.633,0.635,1.164,0.889v9.924c-0.541,0.257-0.914,0.532-1.155,0.849
			c-0.138,0.181-0.199,0.407-0.172,0.633l0.242,2.013c0.053,0.438,0.425,0.768,0.866,0.768h6.547c0.441,0,0.813-0.329,0.866-0.768
			l0.242-2.013c0.027-0.229-0.037-0.461-0.18-0.643c-0.361-0.461-0.996-0.807-2.021-1.091v-1.306h0.219
			c6.873,0,8.315-3.467,8.315-6.376C69.096,23.245,68.414,21.598,67.068,20.644z M60.562,23.646h0.582
			c0.932,0,1.658,0.145,2.101,0.416c0.312,0.193,0.471,0.669,0.471,1.416c0,0.545-0.085,1.264-0.488,1.588
			c-0.374,0.302-1.036,0.462-1.913,0.462h-0.752V23.646z M82.648,32.643v4.219c0,0.481-0.391,0.872-0.872,0.872H70.67
			c-0.441,0-0.813-0.329-0.866-0.768l-0.242-2.013c-0.027-0.226,0.034-0.452,0.172-0.633c0.241-0.316,0.614-0.592,1.155-0.849
			v-9.924c-0.531-0.254-0.914-0.548-1.164-0.889c-0.132-0.179-0.189-0.4-0.163-0.62l0.242-2.013
			c0.053-0.438,0.425-0.768,0.866-0.768h5.674c0.441,0,0.813,0.329,0.866,0.768l0.242,2.013c0.029,0.24-0.043,0.481-0.198,0.666
			c-0.266,0.315-0.638,0.591-1.129,0.834v9.808h2.309c0.24-0.682,0.556-1.197,0.956-1.565c0.188-0.173,0.44-0.254,0.696-0.224
			l1.795,0.219C82.319,31.831,82.648,32.202,82.648,32.643z M46.135,34.272c0.164,0.187,0.241,0.435,0.212,0.682l-0.242,2.013
			c-0.053,0.438-0.425,0.768-0.866,0.768h-6.305c-0.441,0-0.813-0.329-0.866-0.768l-0.242-2.013
			c-0.028-0.236,0.041-0.475,0.191-0.658c0.342-0.416,0.911-0.748,1.767-1.024v-9.203c-0.652-0.111-1.201-0.268-1.663-0.472
			c-0.316-0.14-0.52-0.452-0.52-0.798v-1.843c0-0.346,0.204-0.659,0.521-0.799c1.887-0.829,3.978-1.123,6.095-0.893
			c0.171,0.019,0.325,0.085,0.451,0.186c0.215,0.159,0.352,0.406,0.352,0.682v13.351C45.516,33.726,45.883,33.987,46.135,34.272z
			 M145.203,34.445c-0.336-0.414-0.866-0.76-1.613-1.051l-1.616-3.078c-0.144-0.269-0.336-0.515-0.579-0.741
			c0.534-0.338,1.014-0.735,1.433-1.189c0.838-0.906,1.262-2.035,1.262-3.355c0-2.153-0.69-3.683-2.055-4.545
			c-1.251-0.79-3.049-1.191-5.51-1.226h-6.183c-0.441,0-0.813,0.329-0.866,0.768l-0.242,2.013c-0.026,0.22,0.031,0.441,0.163,0.62
			c0.25,0.341,0.633,0.635,1.164,0.889v9.924c-0.541,0.257-0.914,0.532-1.155,0.849c-0.138,0.181-0.199,0.407-0.172,0.633
			l0.242,2.013c0.053,0.438,0.425,0.768,0.866,0.768h6.547c0.441,0,0.813-0.329,0.866-0.768l0.242-2.013
			c0.027-0.229-0.037-0.461-0.18-0.643c-0.361-0.461-0.996-0.807-2.021-1.091v-2.324h0.592c0.043,0.054,0.12,0.169,0.219,0.396
			l2.789,5.94c0.144,0.306,0.452,0.501,0.79,0.501h4.098c0.438,0,0.809-0.325,0.865-0.76l0.242-1.867
			C145.423,34.87,145.355,34.63,145.203,34.445z M135.797,23.646h0.558c0.865,0,1.534,0.134,1.935,0.387
			c0.114,0.072,0.419,0.265,0.419,1.069c0,0.796-0.288,0.972-0.396,1.038c-0.275,0.168-0.848,0.369-2.006,0.369h-0.51V23.646z
			 M128.024,31.777l-1.795-0.219c-0.253-0.03-0.509,0.051-0.696,0.224c-0.401,0.369-0.717,0.885-0.956,1.565h-2.454v-2.888h1.926
			c0.193,0.381,0.404,0.653,0.649,0.84c0.182,0.14,0.413,0.203,0.639,0.172l1.527-0.193c0.437-0.055,0.763-0.426,0.763-0.865v-4.316
			c0-0.35-0.206-0.654-0.509-0.793l0.712-0.087c0.438-0.054,0.767-0.425,0.767-0.866v-4.219c0-0.481-0.391-0.872-0.872-0.872
			h-11.057c-0.441,0-0.813,0.329-0.866,0.768l-0.242,2.013c-0.026,0.22,0.031,0.441,0.163,0.62c0.25,0.341,0.633,0.635,1.164,0.889
			v9.924c-0.541,0.257-0.914,0.532-1.155,0.849c-0.138,0.181-0.199,0.407-0.172,0.633l0.242,2.013
			c0.053,0.438,0.425,0.768,0.866,0.768h11.251c0.481,0,0.872-0.391,0.872-0.872v-4.219
			C128.79,32.202,128.461,31.831,128.024,31.777z M124.636,25.285c-0.209,0.192-0.399,0.452-0.576,0.788h-1.938v-2.427h2.264
			c0.213,0.604,0.476,1.07,0.793,1.409C124.978,25.066,124.785,25.146,124.636,25.285z M99.223,33.334l-4.693-13.608
			c-0.122-0.353-0.453-0.588-0.825-0.588h-3.321c-0.375,0-0.708,0.239-0.827,0.596l-4.519,13.507
			c-0.744,0.278-1.276,0.631-1.621,1.07c-0.143,0.182-0.207,0.413-0.18,0.643l0.242,2.013c0.053,0.438,0.425,0.768,0.866,0.768
			h5.528c0.441,0,0.813-0.329,0.866-0.768l0.243-2.013c0.03-0.25-0.049-0.5-0.217-0.688c-0.227-0.252-0.51-0.477-0.855-0.677
			l0.194-0.632h3.57l0.226,0.701c-0.351,0.2-0.61,0.419-0.797,0.667c-0.135,0.18-0.195,0.404-0.168,0.628l0.242,2.013
			c0.053,0.438,0.425,0.768,0.866,0.768h5.674c0.441,0,0.813-0.329,0.866-0.768l0.242-2.013c0.029-0.241-0.044-0.484-0.201-0.669
			C100.311,33.914,99.85,33.601,99.223,33.334z M91.879,27.236l0.543,1.747h-1.093L91.879,27.236z M114.842,20.027l0.242,2.013
			c0.029,0.245-0.046,0.49-0.208,0.677c-0.372,0.429-0.905,0.773-1.623,1.049l-3.595,7.689v2.027
			c0.497,0.244,0.864,0.505,1.116,0.79c0.164,0.187,0.241,0.435,0.212,0.682l-0.242,2.013c-0.053,0.438-0.425,0.768-0.866,0.768
			h-5.674c-0.441,0-0.813-0.329-0.866-0.768l-0.243-2.013c-0.027-0.226,0.035-0.454,0.173-0.635c0.241-0.315,0.615-0.59,1.155-0.847
			V31.46l-3.713-7.722c-0.739-0.29-1.264-0.634-1.597-1.046c-0.147-0.182-0.216-0.416-0.189-0.648l0.218-1.892
			c0-0.072,0.004-0.068,0.021-0.139c0.098-0.387,0.471-0.755,0.87-0.755h5.674c0.441,0,0.813,0.329,0.866,0.768l0.242,2.013
			c0.025,0.214-0.028,0.43-0.152,0.605c-0.167,0.238-0.396,0.45-0.693,0.639l0.486,1.103c0.269,0.611,0.519,1.224,0.747,1.833
			c0.222-0.603,0.467-1.214,0.735-1.829l0.438-1c-0.375-0.218-0.66-0.452-0.86-0.71c-0.142-0.182-0.205-0.412-0.178-0.641
			l0.243-2.013c0.053-0.438,0.425-0.768,0.866-0.768h5.528C114.417,19.259,114.789,19.588,114.842,20.027z"/>
		<path class="st67" d="M44.147,35.049c0.646,0.259,1.092,0.525,1.334,0.8l-0.242,2.013h-6.305l-0.242-2.013
			c0.291-0.354,0.945-0.662,1.964-0.921v-10.62c-0.905-0.098-1.633-0.267-2.183-0.51v-1.843c1.358-0.598,2.797-0.896,4.316-0.896
			c0.437,0,0.881,0.023,1.333,0.072v0.024l0.024-0.024V35.049z M68.224,26.539c0,3.67-2.481,5.504-7.443,5.504H59.69v2.861
			c1.18,0.259,1.915,0.574,2.206,0.945l-0.242,2.013h-6.547l-0.242-2.013c0.209-0.274,0.654-0.541,1.333-0.8V23.968
			c-0.663-0.242-1.107-0.517-1.333-0.824l0.242-2.013h6.426c2.246,0.032,3.924,0.44,5.031,1.225
			C67.67,23.14,68.224,24.535,68.224,26.539z M64.587,26.478c0-1.075-0.295-1.794-0.885-2.158c-0.591-0.363-1.443-0.546-2.559-0.546
			H59.69V29.4h1.624c1.1,0,1.92-0.219,2.461-0.655C64.317,28.309,64.587,27.553,64.587,26.478z M79.084,35.219h-3.831V23.968
			c0.63-0.242,1.074-0.517,1.333-0.824l-0.242-2.013H70.67l-0.242,2.013c0.226,0.308,0.67,0.582,1.333,0.824v11.081
			c-0.679,0.259-1.124,0.525-1.333,0.8l0.242,2.013h11.105v-4.219l-1.795-0.219C79.593,33.781,79.294,34.378,79.084,35.219z
			 M98.529,35c0.68,0.243,1.156,0.525,1.431,0.849l-0.242,2.013h-5.674l-0.242-2.013c0.193-0.258,0.582-0.5,1.164-0.727
			l-0.655-2.037h-4.85l-0.605,1.964c0.565,0.227,0.985,0.493,1.261,0.8l-0.243,2.013h-5.528l-0.242-2.013
			c0.291-0.371,0.832-0.679,1.625-0.921l4.655-13.918h3.321L98.529,35z M93.608,30.855l-0.921-2.959
			c-0.372-1.131-0.582-2.157-0.631-3.079l-0.024-0.412h-0.339c0,0.986-0.203,2.134-0.606,3.443l-0.945,3.007H93.608z
			 M108.447,21.131l-0.243,2.013c0.227,0.291,0.663,0.565,1.31,0.824l-0.775,1.771c-0.55,1.261-0.994,2.481-1.334,3.661h-0.363
			l-0.17-0.485c-0.34-1.051-0.744-2.109-1.213-3.176l-0.824-1.867c0.55-0.21,0.922-0.452,1.115-0.728l-0.242-2.013h-5.674
			l-0.024,0.097v0.024l-0.218,1.892c0.274,0.339,0.792,0.639,1.552,0.897l3.952,8.22v2.788c-0.679,0.259-1.124,0.525-1.334,0.8
			l0.243,2.013h5.674l0.242-2.013c-0.242-0.274-0.688-0.541-1.334-0.8v-2.788l3.831-8.196c0.744-0.242,1.277-0.549,1.601-0.921
			l-0.242-2.013H108.447z M125.227,35.219h-3.977v-4.632h3.37c0.193,0.518,0.396,0.857,0.606,1.019l1.527-0.193v-4.316l-1.527-0.17
			c-0.211,0.194-0.413,0.533-0.606,1.019h-3.37v-4.171h3.782c0.227,0.873,0.525,1.472,0.897,1.795l1.794-0.219v-4.219h-11.057
			l-0.242,2.013c0.226,0.308,0.67,0.582,1.333,0.824v11.081c-0.679,0.259-1.124,0.525-1.333,0.8l0.242,2.013h11.251v-4.219
			l-1.795-0.219C125.736,33.781,125.436,34.378,125.227,35.219z M144.527,35.995l-0.242,1.867h-4.098l-2.789-5.94
			c-0.259-0.598-0.558-0.897-0.897-0.897h-1.575v3.88c1.18,0.259,1.915,0.574,2.206,0.945l-0.242,2.013h-6.547l-0.242-2.013
			c0.209-0.274,0.654-0.541,1.333-0.8V23.968c-0.663-0.242-1.107-0.517-1.333-0.824l0.242-2.013h6.183
			c2.264,0.032,3.944,0.396,5.044,1.091c1.099,0.695,1.648,1.965,1.648,3.808c0,1.099-0.344,2.021-1.03,2.764
			c-0.688,0.744-1.548,1.31-2.582,1.697c0.808,0.34,1.341,0.752,1.6,1.236l1.771,3.371
			C143.735,35.357,144.251,35.656,144.527,35.995z M139.58,26.102c0-0.856-0.275-1.459-0.824-1.807
			c-0.55-0.347-1.351-0.521-2.401-0.521h-1.43v4.607h1.382c1.099,0,1.919-0.166,2.461-0.497
			C139.309,27.553,139.58,26.959,139.58,26.102z"/>
	</g>
</g>
</svg>
