<?xml version="1.0" encoding="utf-8"?>
<!-- Generator: Adobe Illustrator 18.1.1, SVG Export Plug-In . SVG Version: 6.00 Build 0)  -->
<svg version="1.1" id="Layer_1" xmlns="http://www.w3.org/2000/svg" xmlns:xlink="http://www.w3.org/1999/xlink" x="0px" y="0px"
	 width="100%" preserveAspectRatio="none" viewBox="0 0 500 390" style="enable-background:new 0 0 500 390;" xml:space="preserve">
<style type="text/css">
	.st0{opacity:0.4;}
	.st1{opacity:0.3;}
	.st2{opacity:0.2;}
	.st3{opacity:0.1;}
	.st4{opacity:0.05;}
	.st5{fill:url(#);}
	.st6{fill:#73420E;}
	.st7{fill:#F4C990;}
	.st8{fill:#AA772D;}
	.st9{fill:#C18C36;}
	.st10{opacity:0.25;}
	.st11{fill:url(#SVGID_1_);}
	.st12{fill:#730000;}
	.st13{fill:url(#SVGID_2_);}
	.st14{opacity:0.05;fill:#993300;}
	.st15{fill:url(#SVGID_3_);}
	.st16{fill:url(#SVGID_4_);}
	.st17{fill:#990000;}
	.st18{fill:url(#SVGID_5_);}
	.st19{fill:url(#SVGID_6_);}
	.st20{fill:url(#SVGID_7_);}
	.st21{fill:url(#SVGID_8_);}
	.st22{fill:url(#SVGID_9_);}
	.st23{fill:#262626;}
	.st24{fill:url(#SVGID_10_);}
	.st25{fill:url(#SVGID_11_);}
	.st26{fill:url(#SVGID_12_);}
	.st27{fill:#333333;}
	.st28{fill:url(#SVGID_13_);}
	.st29{fill:url(#SVGID_14_);}
	.st30{fill:url(#SVGID_15_);}
	.st31{fill:url(#SVGID_16_);}
	.st32{fill:#086700;}
	.st33{fill:url(#SVGID_17_);}
	.st34{fill:url(#SVGID_18_);}
	.st35{fill:url(#SVGID_19_);}
	.st36{fill:url(#SVGID_20_);}
	.st37{fill:url(#SVGID_21_);}
	.st38{fill:url(#SVGID_22_);}
	.st39{fill:url(#SVGID_23_);}
	.st40{fill:url(#SVGID_24_);}
	.st41{fill:url(#SVGID_25_);}
	.st42{fill:url(#SVGID_26_);}
	.st43{fill:url(#SVGID_27_);}
	.st44{fill:url(#SVGID_28_);}
	.st45{fill:url(#SVGID_29_);}
	.st46{fill:url(#SVGID_30_);}
	.st47{fill:url(#SVGID_31_);}
	.st48{fill:url(#SVGID_32_);}
	.st49{fill:url(#SVGID_33_);}
	.st50{fill:url(#SVGID_34_);}
	.st51{fill:url(#SVGID_35_);}
	.st52{fill:url(#SVGID_36_);}
	.st53{fill:url(#SVGID_37_);}
	.st54{fill:url(#SVGID_38_);}
	.st55{fill:url(#SVGID_39_);}
	.st56{fill:url(#SVGID_40_);}
	.st57{fill:url(#SVGID_41_);}
	.st58{fill:url(#SVGID_42_);}
	.st59{fill:url(#SVGID_43_);}
	.st60{opacity:0.45;}
	.st61{fill:url(#SVGID_44_);}
	.st62{fill:url(#SVGID_45_);}
	.st63{fill:url(#SVGID_46_);}
	.st64{fill:url(#SVGID_47_);}
	.st65{opacity:0.35;fill:url(#SVGID_48_);}
	.st66{fill:url(#SVGID_49_);}
	.st67{fill:#FFFFFF;}
	.st68{fill:#666666;}
	.st69{fill:#FFFF00;}
	.st70{fill:#99FF00;}
	.st71{opacity:0.75;}
	.st72{fill:#FF0000;}
	.st73{display:none;fill:url(#SVGID_50_);}
	.st74{display:none;fill:url(#SVGID_51_);}
	.st75{fill:url(#Inside_Line_1_);}
	.st76{clip-path:url(#SVGID_52_);}
	.st77{fill:url(#SVGID_53_);}
	.st78{fill:#999999;}
	.st79{fill:url(#SVGID_54_);}
	.st80{opacity:0.5;fill:#FFFFFF;}
	.st81{fill:url(#SVGID_55_);}
	.st82{fill:url(#SVGID_56_);}
	.st83{opacity:0.15;fill:#FFFFFF;}
	.st84{fill:url(#SVGID_57_);}
	.st85{fill:url(#SVGID_58_);}
	.st86{fill:url(#SVGID_59_);}
	.st87{fill:url(#SVGID_60_);}
	.st88{fill:url(#SVGID_61_);}
	.st89{fill:url(#SVGID_62_);}
	.st90{fill:url(#SVGID_63_);}
	.st91{fill:url(#SVGID_64_);}
	.st92{fill:url(#SVGID_65_);}
	.st93{fill:url(#SVGID_66_);}
	.st94{fill:url(#SVGID_67_);}
	.st95{fill:url(#SVGID_68_);}
	.st96{fill:url(#SVGID_69_);}
	.st97{fill:url(#SVGID_70_);}
	.st98{fill:url(#SVGID_71_);}
	.st99{fill:url(#SVGID_72_);}
	.st100{fill:url(#SVGID_73_);}
	.st101{fill:url(#SVGID_74_);}
	.st102{fill:url(#SVGID_75_);}
	.st103{fill:url(#SVGID_76_);}
	.st104{fill:url(#SVGID_77_);}
	.st105{fill:url(#SVGID_78_);}
	.st106{fill:url(#SVGID_79_);}
	.st107{fill:url(#SVGID_80_);}
	.st108{fill:url(#SVGID_81_);}
	.st109{fill:url(#SVGID_82_);}
	.st110{fill:#00CC00;}
	.st111{fill:url(#SVGID_83_);}
	.st112{fill:url(#SVGID_84_);}
	.st113{fill:url(#SVGID_86_);}
	.st114{fill:url(#SVGID_87_);}
	.st115{fill:url(#SVGID_88_);}
	.st116{fill:url(#SVGID_89_);}
	.st117{fill:#1B1B1B;}
	.st118{fill:url(#SVGID_90_);}
	.st119{fill:url(#SVGID_91_);}
	.st120{fill:url(#SVGID_92_);}
	.st121{fill:#FF9900;}
	.st122{fill:url(#SVGID_93_);}
	.st123{fill:url(#SVGID_94_);}
	.st124{fill:url(#SVGID_95_);}
	.st125{fill:url(#SVGID_96_);}
	.st126{fill:url(#SVGID_97_);}
	.st127{fill:url(#SVGID_98_);}
	.st128{fill:url(#SVGID_99_);}
	.st129{fill:url(#SVGID_100_);}
	.st130{fill:url(#SVGID_101_);}
	.st131{fill:url(#SVGID_102_);}
	.st132{fill:url(#SVGID_103_);}
	.st133{fill:url(#SVGID_104_);}
	.st134{fill:url(#SVGID_105_);}
</style>
<g>
	<path class="st10" d="M478.943,7.759H18.056c-7.851,0-14.239,6.388-14.239,14.24v349.002c0,7.852,6.388,14.24,14.239,14.24h460.887
		c7.852,0,14.24-6.388,14.24-14.24V21.999C493.183,14.147,486.795,7.759,478.943,7.759z"/>
	<g>
		<g>
			<g>
				<g id="Window_11_">
					<g>
						<linearGradient id="SVGID_1_" gradientUnits="userSpaceOnUse" x1="251.4999" y1="379.4615" x2="251.4999" y2="7.5386">
							<stop  offset="0" style="stop-color:#333333"/>
							<stop  offset="1" style="stop-color:#000000"/>
						</linearGradient>
						<path class="st11" d="M21.056,379.461c-6.318,0-11.459-5.141-11.459-11.46V19c0-6.319,5.141-11.461,11.459-11.461h460.887
							c6.319,0,11.46,5.142,11.46,11.461v349.002c0,6.319-5.141,11.46-11.46,11.46H21.056z"/>
						<path d="M481.943,8.539c5.768,0,10.46,4.692,10.46,10.46v349.002c0,5.768-4.692,10.46-10.46,10.46H21.056
							c-5.767,0-10.459-4.692-10.459-10.46V18.999c0-5.768,4.692-10.46,10.459-10.46H481.943 M481.943,6.539H21.056
							c-6.881,0-12.459,5.578-12.459,12.46v349.002c0,6.88,5.578,12.46,12.459,12.46h460.887c6.882,0,12.46-5.58,12.46-12.46V18.999
							C494.403,12.117,488.825,6.539,481.943,6.539L481.943,6.539z"/>
						<path class="st67" d="M481.943,6.539c6.882,0,12.46,5.578,12.46,12.46v349.002c0,6.88-5.578,12.46-12.46,12.46H21.056
							c-6.881,0-12.459-5.58-12.459-12.46V18.999c0-6.882,5.578-12.46,12.459-12.46H481.943 M481.943,4.759H21.056
							c-7.851,0-14.239,6.388-14.239,14.24v349.002c0,7.852,6.388,14.24,14.239,14.24h460.887c7.852,0,14.24-6.388,14.24-14.24
							V18.999C496.183,11.147,489.795,4.759,481.943,4.759L481.943,4.759z"/>
					</g>
					<path class="st27" d="M10.377,40.922h482.245V18.664c0-5.889-4.792-10.68-10.68-10.68H21.056
						c-5.889,0-10.679,4.791-10.679,10.68V40.922z"/>
				</g>
			</g>
			<path class="st68" d="M21.056,10.653h460.887c4.344,0,8.164,2.226,10.395,5.597c-1.099-4.729-5.337-8.267-10.395-8.267H21.056
				c-5.058,0-9.296,3.538-10.394,8.266C12.892,12.878,16.713,10.653,21.056,10.653z"/>
		</g>
	</g>
</g>
</svg>
