<?xml version="1.0" encoding="utf-8"?>
<!-- Generator: Adobe Illustrator 18.1.1, SVG Export Plug-In . SVG Version: 6.00 Build 0)  -->
<svg version="1.1" id="Layer_1" xmlns="http://www.w3.org/2000/svg" xmlns:xlink="http://www.w3.org/1999/xlink" x="0px" y="0px"
	 width="180px" height="60px" viewBox="0 0 180 60" style="enable-background:new 0 0 180 60;" xml:space="preserve">
<style type="text/css">
	.st0{opacity:0.4;}
	.st1{opacity:0.3;}
	.st2{opacity:0.2;}
	.st3{opacity:0.1;}
	.st4{opacity:0.05;}
	.st5{fill:url(#);}
	.st6{fill:#73420E;}
	.st7{fill:#F4C990;}
	.st8{fill:#AA772D;}
	.st9{fill:#C18C36;}
	.st10{opacity:0.25;}
	.st11{fill:url(#SVGID_1_);}
	.st12{fill:#730000;}
	.st13{fill:url(#SVGID_2_);}
	.st14{opacity:0.05;fill:#993300;}
	.st15{fill:url(#SVGID_3_);}
	.st16{fill:url(#SVGID_4_);}
	.st17{fill:#990000;}
	.st18{fill:url(#SVGID_5_);}
	.st19{fill:url(#SVGID_6_);}
	.st20{fill:url(#SVGID_7_);}
	.st21{fill:url(#SVGID_8_);}
	.st22{fill:url(#SVGID_9_);}
	.st23{fill:#262626;}
	.st24{fill:url(#SVGID_10_);}
	.st25{fill:url(#SVGID_11_);}
	.st26{fill:url(#SVGID_12_);}
	.st27{fill:#333333;}
	.st28{fill:url(#SVGID_13_);}
	.st29{fill:url(#SVGID_14_);}
	.st30{fill:url(#SVGID_15_);}
	.st31{fill:url(#SVGID_16_);}
	.st32{fill:#086700;}
	.st33{fill:url(#SVGID_17_);}
	.st34{fill:url(#SVGID_18_);}
	.st35{fill:url(#SVGID_19_);}
	.st36{fill:url(#SVGID_20_);}
	.st37{fill:url(#SVGID_21_);}
	.st38{fill:url(#SVGID_22_);}
	.st39{fill:url(#SVGID_23_);}
	.st40{fill:url(#SVGID_24_);}
	.st41{fill:url(#SVGID_25_);}
	.st42{fill:url(#SVGID_26_);}
	.st43{fill:url(#SVGID_27_);}
	.st44{fill:url(#SVGID_28_);}
	.st45{fill:url(#SVGID_29_);}
	.st46{fill:url(#SVGID_30_);}
	.st47{fill:url(#SVGID_31_);}
	.st48{fill:url(#SVGID_32_);}
	.st49{fill:url(#SVGID_33_);}
	.st50{fill:url(#SVGID_34_);}
	.st51{fill:url(#SVGID_35_);}
	.st52{fill:url(#SVGID_36_);}
	.st53{fill:url(#SVGID_37_);}
	.st54{fill:url(#SVGID_38_);}
	.st55{fill:url(#SVGID_39_);}
	.st56{fill:url(#SVGID_40_);}
	.st57{fill:url(#SVGID_41_);}
	.st58{fill:url(#SVGID_42_);}
	.st59{fill:url(#SVGID_43_);}
	.st60{opacity:0.45;}
	.st61{fill:url(#SVGID_44_);}
	.st62{fill:url(#SVGID_45_);}
	.st63{fill:url(#SVGID_46_);}
	.st64{fill:url(#SVGID_47_);}
	.st65{opacity:0.35;fill:url(#SVGID_48_);}
	.st66{fill:url(#SVGID_49_);}
	.st67{fill:#FFFFFF;}
	.st68{fill:#666666;}
	.st69{fill:#FFFF00;}
	.st70{fill:#99FF00;}
	.st71{opacity:0.75;}
	.st72{fill:#FF0000;}
	.st73{display:none;fill:url(#SVGID_50_);}
	.st74{display:none;fill:url(#SVGID_51_);}
	.st75{fill:url(#Inside_Line_1_);}
	.st76{clip-path:url(#SVGID_52_);}
	.st77{fill:url(#SVGID_53_);}
	.st78{fill:#999999;}
	.st79{fill:url(#SVGID_54_);}
	.st80{opacity:0.5;fill:#FFFFFF;}
	.st81{fill:url(#SVGID_55_);}
	.st82{fill:url(#SVGID_56_);}
	.st83{opacity:0.15;fill:#FFFFFF;}
	.st84{fill:url(#SVGID_57_);}
	.st85{fill:url(#SVGID_58_);}
	.st86{fill:url(#SVGID_59_);}
	.st87{fill:url(#SVGID_60_);}
	.st88{fill:url(#SVGID_61_);}
	.st89{fill:url(#SVGID_62_);}
	.st90{fill:url(#SVGID_63_);}
	.st91{fill:url(#SVGID_64_);}
	.st92{fill:url(#SVGID_65_);}
	.st93{fill:url(#SVGID_66_);}
	.st94{fill:url(#SVGID_67_);}
	.st95{fill:url(#SVGID_68_);}
	.st96{fill:url(#SVGID_69_);}
	.st97{fill:url(#SVGID_70_);}
	.st98{fill:url(#SVGID_71_);}
	.st99{fill:url(#SVGID_72_);}
	.st100{fill:url(#SVGID_73_);}
	.st101{fill:url(#SVGID_74_);}
	.st102{fill:url(#SVGID_75_);}
	.st103{fill:url(#SVGID_76_);}
	.st104{fill:url(#SVGID_77_);}
	.st105{fill:url(#SVGID_78_);}
	.st106{fill:url(#SVGID_79_);}
	.st107{fill:url(#SVGID_80_);}
	.st108{fill:url(#SVGID_81_);}
	.st109{fill:url(#SVGID_82_);}
	.st110{fill:#00CC00;}
	.st111{fill:url(#SVGID_83_);}
	.st112{fill:url(#SVGID_84_);}
	.st113{fill:url(#SVGID_86_);}
	.st114{fill:url(#SVGID_87_);}
	.st115{fill:url(#SVGID_88_);}
	.st116{fill:url(#SVGID_89_);}
	.st117{fill:#1B1B1B;}
	.st118{fill:url(#SVGID_90_);}
	.st119{fill:url(#SVGID_91_);}
	.st120{fill:url(#SVGID_92_);}
	.st121{fill:#FF9900;}
	.st122{fill:url(#SVGID_93_);}
	.st123{fill:url(#SVGID_94_);}
	.st124{fill:url(#SVGID_95_);}
	.st125{fill:url(#SVGID_96_);}
	.st126{fill:url(#SVGID_97_);}
	.st127{fill:url(#SVGID_98_);}
	.st128{fill:url(#SVGID_99_);}
	.st129{fill:url(#SVGID_100_);}
	.st130{fill:url(#SVGID_101_);}
	.st131{fill:url(#SVGID_102_);}
	.st132{fill:url(#SVGID_103_);}
	.st133{fill:url(#SVGID_104_);}
	.st134{fill:url(#SVGID_105_);}
</style>
<g>
	<path id="Main_3_" class="st10" d="M164.386,6.154H12.614c-5.037,0-9.135,4.098-9.135,9.136v1.004v9.376v5.831V47.71
		c0,5.038,4.098,9.136,9.135,9.136h151.771c5.037,0,9.135-4.098,9.135-9.136V31.501v-5.831v-9.376V15.29
		C173.52,10.253,169.422,6.154,164.386,6.154z"/>
	<path id="Main_2_" d="M167.386,3.154H15.614c-5.037,0-9.135,4.098-9.135,9.136v1.004v9.376v5.831V44.71
		c0,5.038,4.098,9.136,9.135,9.136h151.771c5.037,0,9.135-4.098,9.135-9.136V28.501v-5.831v-9.376V12.29
		C176.52,7.253,172.422,3.154,167.386,3.154z"/>
	<path id="Top_Shine_1_" class="st27" d="M167.386,6.395H15.614c-3.795,0-6.896,3.104-6.896,6.899v15.207h165.563V13.294
		C174.282,9.499,171.181,6.395,167.386,6.395z"/>
	<path id="Highlight_1_" class="st68" d="M15.614,6.395h151.771c3.795,0,6.896,3.104,6.896,6.899V12.29
		c0-3.793-3.101-6.897-6.896-6.897H15.614c-3.795,0-6.896,3.104-6.896,6.897v1.004C8.718,9.499,11.82,6.395,15.614,6.395z"/>
	<g>
		<path d="M85.097,32.679v4.22c0,0.481-0.391,0.872-0.872,0.872H73.12c-0.441,0-0.813-0.329-0.866-0.768l-0.242-2.013
			c-0.027-0.226,0.034-0.452,0.172-0.633c0.241-0.316,0.614-0.592,1.155-0.849v-9.924c-0.531-0.256-0.915-0.549-1.164-0.89
			c-0.132-0.179-0.189-0.4-0.163-0.62l0.242-2.012c0.053-0.438,0.425-0.768,0.866-0.768h5.674c0.441,0,0.813,0.329,0.866,0.768
			l0.242,2.012c0.029,0.24-0.043,0.481-0.198,0.666c-0.266,0.315-0.637,0.591-1.129,0.834v9.808h2.31
			c0.24-0.683,0.556-1.197,0.956-1.565c0.188-0.172,0.443-0.251,0.695-0.223l1.795,0.218C84.768,31.865,85.097,32.237,85.097,32.679
			z M47.426,31.565l-2.303-0.146c-0.325-0.017-0.643,0.147-0.81,0.433c-0.26,0.448-0.456,0.993-0.592,1.652h-1.176
			c-0.092,0-0.184,0-0.275,0.002c0.258-0.257,0.501-0.517,0.728-0.778l3.515-4.217c0.472-0.562,0.882-1.231,1.219-1.986
			c0.355-0.797,0.536-1.573,0.536-2.309c0-2.334-1.06-5.115-6.109-5.115c-2.374,0-4.385,0.52-5.977,1.545
			c-0.212,0.137-0.354,0.357-0.391,0.606c-0.021,0.139-0.033,0.375-0.033,0.731c0.036,1.421,0.24,2.437,0.625,3.104
			c0.146,0.256,0.413,0.42,0.707,0.437l2.158,0.121c0.315,0.014,0.626-0.142,0.794-0.416c0.259-0.425,0.449-1.095,0.604-2.138
			c0.331-0.074,0.708-0.112,1.125-0.112c0.76,0,0.945,0.168,0.952,0.174c0.105,0.1,0.164,0.331,0.164,0.651
			c0,0.899-0.494,1.892-1.467,2.948L35.382,33.3c-0.188,0.204-0.268,0.485-0.215,0.758l0.582,3.007
			c0.079,0.41,0.438,0.706,0.856,0.706h11.13c0.4,0,0.75-0.272,0.847-0.662c0.13-0.522,0.195-1.107,0.195-1.737
			c0-1.511-0.213-2.614-0.651-3.371C47.981,31.747,47.718,31.584,47.426,31.565z M71.545,25.574c0,2.909-1.442,6.377-8.315,6.377
			h-0.219v1.306c1.025,0.284,1.66,0.63,2.021,1.092c0.142,0.182,0.206,0.412,0.179,0.642l-0.242,2.013
			c-0.053,0.438-0.425,0.768-0.866,0.768h-6.547c-0.441,0-0.813-0.329-0.866-0.768l-0.242-2.013
			c-0.027-0.226,0.034-0.452,0.172-0.633c0.241-0.316,0.614-0.592,1.155-0.849v-9.924c-0.531-0.256-0.915-0.549-1.164-0.89
			c-0.132-0.179-0.189-0.4-0.163-0.62l0.242-2.012c0.053-0.438,0.425-0.768,0.866-0.768h6.426c2.462,0.035,4.269,0.487,5.535,1.384
			C70.864,21.634,71.545,23.28,71.545,25.574z M63.011,27.563h0.752c0.878,0,1.539-0.16,1.913-0.461
			c0.324-0.261,0.488-0.796,0.488-1.589c0-0.514-0.082-1.175-0.471-1.414c-0.447-0.276-1.154-0.417-2.101-0.417h-0.582V27.563z
			 M103.075,34.321c0.157,0.185,0.23,0.428,0.201,0.669l-0.242,2.013c-0.053,0.438-0.425,0.768-0.866,0.768h-5.674
			c-0.441,0-0.813-0.329-0.866-0.768l-0.242-2.013c-0.026-0.223,0.033-0.447,0.167-0.627c0.187-0.249,0.446-0.468,0.798-0.669
			l-0.226-0.701h-3.569l-0.195,0.633c0.346,0.2,0.629,0.425,0.855,0.677c0.168,0.188,0.247,0.438,0.217,0.688l-0.243,2.013
			c-0.053,0.438-0.425,0.768-0.866,0.768h-5.528c-0.441,0-0.813-0.329-0.866-0.768l-0.242-2.013
			c-0.027-0.229,0.037-0.46,0.179-0.642c0.344-0.439,0.877-0.792,1.622-1.071l4.519-13.508c0.119-0.356,0.452-0.596,0.827-0.596
			h3.321c0.372,0,0.703,0.235,0.825,0.588l4.693,13.609C102.298,33.637,102.759,33.949,103.075,34.321z M93.779,29.019h1.093
			l-0.543-1.746L93.779,29.019z M131.24,32.679v4.22c0,0.481-0.391,0.872-0.872,0.872h-11.251c-0.441,0-0.813-0.329-0.866-0.768
			l-0.242-2.013c-0.027-0.226,0.034-0.452,0.172-0.633c0.241-0.316,0.614-0.592,1.155-0.849v-9.924
			c-0.531-0.256-0.915-0.549-1.164-0.89c-0.132-0.179-0.189-0.4-0.163-0.62l0.242-2.012c0.053-0.438,0.425-0.768,0.866-0.768h11.057
			c0.481,0,0.872,0.391,0.872,0.872v4.219c0,0.441-0.329,0.812-0.767,0.866l-0.712,0.086c0.303,0.139,0.509,0.444,0.509,0.794v4.315
			c0,0.439-0.326,0.811-0.762,0.865l-1.527,0.194c-0.23,0.031-0.458-0.032-0.64-0.172c-0.245-0.187-0.456-0.459-0.649-0.84h-1.926
			v2.887h2.454c0.24-0.682,0.556-1.196,0.957-1.565c0.188-0.172,0.443-0.251,0.695-0.223l1.795,0.218
			C130.911,31.865,131.24,32.237,131.24,32.679z M127.629,25.092c-0.318-0.339-0.581-0.805-0.794-1.409h-2.264v2.427h1.938
			c0.178-0.337,0.368-0.598,0.577-0.79C127.237,25.183,127.429,25.103,127.629,25.092z M147.841,35.144l-0.242,1.867
			c-0.057,0.435-0.427,0.76-0.865,0.76h-4.098c-0.338,0-0.646-0.195-0.79-0.501l-2.789-5.94c-0.099-0.228-0.176-0.343-0.218-0.396
			h-0.593v2.324c1.025,0.284,1.66,0.63,2.021,1.092c0.142,0.182,0.206,0.412,0.179,0.642l-0.242,2.013
			c-0.053,0.438-0.425,0.768-0.866,0.768h-6.547c-0.441,0-0.813-0.329-0.866-0.768l-0.242-2.013
			c-0.027-0.226,0.034-0.452,0.172-0.633c0.241-0.316,0.614-0.592,1.155-0.849v-9.924c-0.531-0.256-0.915-0.549-1.164-0.89
			c-0.132-0.179-0.189-0.4-0.163-0.62l0.242-2.012c0.053-0.438,0.425-0.768,0.866-0.768h6.183c2.463,0.034,4.261,0.436,5.51,1.226
			c1.364,0.862,2.055,2.392,2.055,4.544c0,1.319-0.424,2.449-1.261,3.356c-0.42,0.454-0.899,0.851-1.434,1.188
			c0.243,0.227,0.436,0.474,0.579,0.743l1.616,3.076c0.748,0.291,1.278,0.637,1.614,1.052
			C147.804,34.667,147.872,34.906,147.841,35.144z M138.247,26.545h0.51c1.16,0,1.73-0.201,2.005-0.369
			c0.108-0.066,0.396-0.242,0.396-1.037c0-0.805-0.305-0.997-0.419-1.069c-0.399-0.253-1.068-0.387-1.935-0.387h-0.558V26.545z
			 M116.425,19.296h-5.528c-0.441,0-0.813,0.329-0.866,0.768l-0.243,2.012c-0.027,0.229,0.036,0.459,0.178,0.641
			c0.201,0.258,0.485,0.493,0.86,0.711l-0.438,0.999c-0.269,0.615-0.514,1.227-0.735,1.83c-0.229-0.609-0.479-1.223-0.747-1.834
			l-0.486-1.103c0.297-0.188,0.526-0.4,0.693-0.639c0.124-0.176,0.178-0.392,0.152-0.605l-0.242-2.012
			c-0.053-0.438-0.425-0.768-0.866-0.768h-5.674c-0.399,0-0.772,0.368-0.87,0.755c-0.013,0.049-0.021,0.109-0.024,0.166
			l-0.215,1.863c-0.026,0.232,0.041,0.466,0.188,0.647c0.333,0.412,0.857,0.757,1.598,1.047l3.713,7.722v2.013
			c-0.54,0.257-0.914,0.531-1.155,0.847c-0.138,0.181-0.2,0.409-0.173,0.635l0.243,2.013c0.053,0.438,0.425,0.768,0.866,0.768h5.674
			c0.441,0,0.813-0.329,0.866-0.768l0.242-2.013c0.029-0.247-0.048-0.495-0.212-0.682c-0.252-0.285-0.619-0.546-1.116-0.79v-2.027
			l3.595-7.689c0.718-0.275,1.251-0.621,1.623-1.05c0.162-0.187,0.237-0.432,0.208-0.677l-0.242-2.012
			C117.239,19.625,116.867,19.296,116.425,19.296z"/>
		<path class="st67" d="M47.372,33.437c0.355,0.614,0.534,1.593,0.534,2.935c0,0.565-0.058,1.075-0.17,1.527h-11.13l-0.582-3.007
			l6.038-6.547c1.131-1.229,1.697-2.408,1.697-3.54c0-0.582-0.146-1.01-0.437-1.285c-0.291-0.274-0.809-0.412-1.552-0.412
			c-0.744,0-1.382,0.105-1.916,0.315c-0.146,1.196-0.331,1.98-0.558,2.352l-2.158-0.121c-0.307-0.533-0.477-1.431-0.509-2.691
			c0-0.274,0.008-0.469,0.024-0.582c1.455-0.938,3.289-1.406,5.504-1.406c3.491,0,5.237,1.415,5.237,4.243
			c0,0.614-0.153,1.265-0.461,1.952c-0.307,0.688-0.671,1.281-1.091,1.782l-3.516,4.219c-0.533,0.614-1.164,1.221-1.892,1.818
			l-0.388,0.34l0.121,0.267c0.743-0.146,1.535-0.218,2.376-0.218h1.916c0.112-0.89,0.315-1.585,0.606-2.086L47.372,33.437z
			 M81.534,35.255h-3.831v-11.25c0.63-0.243,1.074-0.518,1.333-0.825l-0.242-2.012H73.12l-0.242,2.012
			c0.226,0.308,0.67,0.582,1.333,0.825v11.081c-0.679,0.259-1.124,0.525-1.333,0.8l0.242,2.013h11.105v-4.22l-1.795-0.218
			C82.042,33.816,81.744,34.415,81.534,35.255z M70.673,26.574c0,3.67-2.481,5.505-7.443,5.505h-1.091v2.861
			c1.18,0.259,1.915,0.573,2.206,0.945l-0.242,2.013h-6.547l-0.242-2.013c0.209-0.274,0.654-0.541,1.333-0.8V24.005
			c-0.663-0.243-1.107-0.518-1.333-0.825l0.242-2.012h6.426c2.246,0.032,3.924,0.44,5.031,1.224
			C70.12,23.176,70.673,24.57,70.673,26.574z M67.037,26.514c0-1.074-0.295-1.794-0.885-2.157c-0.591-0.364-1.443-0.546-2.559-0.546
			h-1.454v5.625h1.624c1.1,0,1.92-0.218,2.461-0.654C66.766,28.345,67.037,27.589,67.037,26.514z M100.979,35.037
			c0.68,0.242,1.156,0.525,1.431,0.849l-0.242,2.013h-5.674l-0.242-2.013c0.193-0.259,0.582-0.501,1.164-0.728l-0.655-2.037h-4.85
			l-0.605,1.965c0.565,0.227,0.985,0.493,1.261,0.8l-0.243,2.013h-5.528l-0.242-2.013c0.291-0.372,0.832-0.679,1.625-0.922
			l4.655-13.918h3.321L100.979,35.037z M96.057,30.891l-0.921-2.958c-0.372-1.132-0.582-2.158-0.631-3.079l-0.024-0.413h-0.339
			c0,0.986-0.203,2.134-0.606,3.443l-0.945,3.007H96.057z M110.897,21.168l-0.243,2.012c0.227,0.291,0.663,0.566,1.31,0.825
			l-0.775,1.77c-0.55,1.261-0.994,2.481-1.334,3.661h-0.363l-0.17-0.484c-0.34-1.051-0.744-2.109-1.213-3.177l-0.824-1.867
			c0.55-0.21,0.922-0.452,1.115-0.728l-0.242-2.012h-5.674l-0.024,0.097v0.024l-0.218,1.891c0.274,0.34,0.792,0.639,1.552,0.897
			l3.952,8.22v2.789c-0.679,0.259-1.124,0.525-1.334,0.8l0.243,2.013h5.674l0.242-2.013c-0.242-0.274-0.688-0.541-1.334-0.8v-2.789
			l3.831-8.195c0.744-0.242,1.277-0.55,1.601-0.922l-0.242-2.012H110.897z M146.976,36.031l-0.242,1.867h-4.098l-2.789-5.94
			c-0.259-0.599-0.558-0.897-0.897-0.897h-1.575v3.88c1.18,0.259,1.915,0.573,2.206,0.945l-0.242,2.013h-6.547l-0.242-2.013
			c0.209-0.274,0.654-0.541,1.333-0.8V24.005c-0.663-0.243-1.107-0.518-1.333-0.825l0.242-2.012h6.183
			c2.264,0.032,3.944,0.396,5.044,1.091c1.099,0.695,1.648,1.964,1.648,3.807c0,1.1-0.344,2.021-1.03,2.765
			c-0.688,0.743-1.548,1.309-2.582,1.697c0.808,0.339,1.341,0.751,1.6,1.236l1.771,3.37
			C146.184,35.393,146.701,35.691,146.976,36.031z M142.03,26.139c0-0.857-0.275-1.459-0.824-1.807
			c-0.55-0.348-1.351-0.521-2.401-0.521h-1.43v4.606h1.382c1.099,0,1.919-0.165,2.461-0.497
			C141.758,27.589,142.03,26.995,142.03,26.139z M127.676,35.255H123.7v-4.631h3.37c0.193,0.518,0.396,0.857,0.606,1.019
			l1.527-0.194v-4.315l-1.527-0.17c-0.211,0.193-0.413,0.533-0.606,1.019h-3.37v-4.171h3.782c0.227,0.873,0.525,1.471,0.897,1.794
			l1.794-0.218v-4.219h-11.057l-0.242,2.012c0.226,0.308,0.67,0.582,1.333,0.825v11.081c-0.679,0.259-1.124,0.525-1.333,0.8
			l0.242,2.013h11.251v-4.22l-1.795-0.218C128.185,33.816,127.885,34.415,127.676,35.255z"/>
	</g>
</g>
</svg>
