<?xml version="1.0" encoding="utf-8"?>
<!-- Generator: Adobe Illustrator 18.1.1, SVG Export Plug-In . SVG Version: 6.00 Build 0)  -->
<svg version="1.1" id="Layer_1" xmlns="http://www.w3.org/2000/svg" xmlns:xlink="http://www.w3.org/1999/xlink" x="0px" y="0px"
	 width="85px" height="75px" viewBox="0 0 85 75" style="enable-background:new 0 0 85 75;" xml:space="preserve">
<style type="text/css">
	.st0{opacity:0.4;}
	.st1{opacity:0.3;}
	.st2{opacity:0.2;}
	.st3{opacity:0.1;}
	.st4{opacity:0.05;}
	.st5{fill:url(#);}
	.st6{fill:#73420E;}
	.st7{fill:#F4C990;}
	.st8{fill:#AA772D;}
	.st9{fill:#C18C36;}
	.st10{opacity:0.25;}
	.st11{fill:url(#SVGID_1_);}
	.st12{fill:#730000;}
	.st13{fill:url(#SVGID_2_);}
	.st14{opacity:0.05;fill:#993300;}
	.st15{fill:url(#SVGID_3_);}
	.st16{fill:url(#SVGID_4_);}
	.st17{fill:#990000;}
	.st18{fill:url(#SVGID_5_);}
	.st19{fill:url(#SVGID_6_);}
	.st20{fill:url(#SVGID_7_);}
	.st21{fill:url(#SVGID_8_);}
	.st22{fill:url(#SVGID_9_);}
	.st23{fill:#262626;}
	.st24{fill:url(#SVGID_10_);}
	.st25{fill:url(#SVGID_11_);}
	.st26{fill:url(#SVGID_12_);}
	.st27{fill:#333333;}
	.st28{fill:url(#SVGID_13_);}
	.st29{fill:url(#SVGID_14_);}
	.st30{fill:url(#SVGID_15_);}
	.st31{fill:url(#SVGID_16_);}
	.st32{fill:#086700;}
	.st33{fill:url(#SVGID_17_);}
	.st34{fill:url(#SVGID_18_);}
	.st35{fill:url(#SVGID_19_);}
	.st36{fill:url(#SVGID_20_);}
	.st37{fill:url(#SVGID_21_);}
	.st38{fill:url(#SVGID_22_);}
	.st39{fill:url(#SVGID_23_);}
	.st40{fill:url(#SVGID_24_);}
	.st41{fill:url(#SVGID_25_);}
	.st42{fill:url(#SVGID_26_);}
	.st43{fill:url(#SVGID_27_);}
	.st44{fill:url(#SVGID_28_);}
	.st45{fill:url(#SVGID_29_);}
	.st46{fill:url(#SVGID_30_);}
	.st47{fill:url(#SVGID_31_);}
	.st48{fill:url(#SVGID_32_);}
	.st49{fill:url(#SVGID_33_);}
	.st50{fill:url(#SVGID_34_);}
	.st51{fill:url(#SVGID_35_);}
	.st52{fill:url(#SVGID_36_);}
	.st53{fill:url(#SVGID_37_);}
	.st54{fill:url(#SVGID_38_);}
	.st55{fill:url(#SVGID_39_);}
	.st56{fill:url(#SVGID_40_);}
	.st57{fill:url(#SVGID_41_);}
	.st58{fill:url(#SVGID_42_);}
	.st59{fill:url(#SVGID_43_);}
	.st60{opacity:0.45;}
	.st61{fill:url(#SVGID_44_);}
	.st62{fill:url(#SVGID_45_);}
	.st63{fill:url(#SVGID_46_);}
	.st64{fill:url(#SVGID_47_);}
	.st65{opacity:0.35;fill:url(#SVGID_48_);}
	.st66{fill:url(#SVGID_49_);}
	.st67{fill:#FFFFFF;}
	.st68{fill:#666666;}
	.st69{fill:#FFFF00;}
	.st70{fill:#99FF00;}
	.st71{opacity:0.75;}
	.st72{fill:#FF0000;}
	.st73{display:none;fill:url(#SVGID_50_);}
	.st74{display:none;fill:url(#SVGID_51_);}
	.st75{fill:url(#Inside_Line_1_);}
	.st76{clip-path:url(#SVGID_52_);}
	.st77{fill:url(#SVGID_53_);}
	.st78{fill:#999999;}
	.st79{fill:url(#SVGID_54_);}
	.st80{opacity:0.5;fill:#FFFFFF;}
	.st81{fill:url(#SVGID_55_);}
	.st82{fill:url(#SVGID_56_);}
	.st83{opacity:0.15;fill:#FFFFFF;}
	.st84{fill:url(#SVGID_57_);}
	.st85{fill:url(#SVGID_58_);}
	.st86{fill:url(#SVGID_59_);}
	.st87{fill:url(#SVGID_60_);}
	.st88{fill:url(#SVGID_61_);}
	.st89{fill:url(#SVGID_62_);}
	.st90{fill:url(#SVGID_63_);}
	.st91{fill:url(#SVGID_64_);}
	.st92{fill:url(#SVGID_65_);}
	.st93{fill:url(#SVGID_66_);}
	.st94{fill:url(#SVGID_67_);}
	.st95{fill:url(#SVGID_68_);}
	.st96{fill:url(#SVGID_69_);}
	.st97{fill:url(#SVGID_70_);}
	.st98{fill:url(#SVGID_71_);}
	.st99{fill:url(#SVGID_72_);}
	.st100{fill:url(#SVGID_73_);}
	.st101{fill:url(#SVGID_74_);}
	.st102{fill:url(#SVGID_75_);}
	.st103{fill:url(#SVGID_76_);}
	.st104{fill:url(#SVGID_77_);}
	.st105{fill:url(#SVGID_78_);}
	.st106{fill:url(#SVGID_79_);}
	.st107{fill:url(#SVGID_80_);}
	.st108{fill:url(#SVGID_81_);}
	.st109{fill:url(#SVGID_82_);}
	.st110{fill:#00CC00;}
	.st111{fill:url(#SVGID_83_);}
	.st112{fill:url(#SVGID_84_);}
	.st113{fill:url(#SVGID_86_);}
	.st114{fill:url(#SVGID_87_);}
	.st115{fill:url(#SVGID_88_);}
	.st116{fill:url(#SVGID_89_);}
	.st117{fill:#1B1B1B;}
	.st118{fill:url(#SVGID_90_);}
	.st119{fill:url(#SVGID_91_);}
	.st120{fill:url(#SVGID_92_);}
	.st121{fill:#FF9900;}
	.st122{fill:url(#SVGID_93_);}
	.st123{fill:url(#SVGID_94_);}
	.st124{fill:url(#SVGID_95_);}
	.st125{fill:url(#SVGID_96_);}
	.st126{fill:url(#SVGID_97_);}
	.st127{fill:url(#SVGID_98_);}
	.st128{fill:url(#SVGID_99_);}
	.st129{fill:url(#SVGID_100_);}
	.st130{fill:url(#SVGID_101_);}
	.st131{fill:url(#SVGID_102_);}
	.st132{fill:url(#SVGID_103_);}
	.st133{fill:url(#SVGID_104_);}
	.st134{fill:url(#SVGID_105_);}
</style>
<g>
	<path class="st10" d="M61.443,71.618H20.557c-8.066,0-14.628-6.563-14.628-14.63V21.012c0-8.067,6.562-14.63,14.628-14.63h40.887
		c8.066,0,14.628,6.563,14.628,14.63v35.976C76.071,65.055,69.509,71.618,61.443,71.618z"/>
	<path class="st67" d="M64.443,68.618H23.557c-8.066,0-14.628-6.563-14.628-14.63V18.012c0-8.067,6.562-14.63,14.628-14.63h40.887
		c8.066,0,14.628,6.563,14.628,14.63v35.976C79.071,62.055,72.509,68.618,64.443,68.618z"/>
	<path d="M64.443,5.468H23.556c-6.915,0-12.542,5.627-12.542,12.544v1.34v12.516v7.783v14.337c0,6.917,5.627,12.544,12.542,12.544
		h40.887c6.916,0,12.542-5.627,12.542-12.544V39.651v-7.783V19.352v-1.34C76.986,11.095,71.359,5.468,64.443,5.468z"/>
	<path class="st27" d="M64.443,10.143H23.557c-5.065,0-9.205,4.144-9.205,9.209v14.753h59.297V19.352
		C73.649,14.287,69.509,10.143,64.443,10.143z"/>
	<path class="st68" d="M23.557,10.143h40.887c5.066,0,9.205,4.144,9.205,9.209v-1.34c0-5.064-4.14-9.207-9.205-9.207H23.557
		c-5.065,0-9.205,4.143-9.205,9.207v1.34C14.351,14.287,18.491,10.143,23.557,10.143z"/>
	<path d="M44.06,14.496C31.1,14.496,20.556,25.04,20.556,38S31.1,61.504,44.06,61.504c12.96,0,23.504-10.544,23.504-23.504
		S57.02,14.496,44.06,14.496z"/>
	<g>
		<g>
			<linearGradient id="SVGID_1_" gradientUnits="userSpaceOnUse" x1="44.24" y1="59.3353" x2="44.24" y2="16.6644">
				<stop  offset="0" style="stop-color:#1A1A1A"/>
				<stop  offset="0.5" style="stop-color:#515151"/>
				<stop  offset="1" style="stop-color:#1A1A1A"/>
			</linearGradient>
			<path class="st11" d="M44.24,59.335c-11.764,0-21.335-9.571-21.335-21.336c0-11.764,9.571-21.335,21.335-21.335
				s21.335,9.571,21.335,21.335C65.575,49.764,56.004,59.335,44.24,59.335z"/>
			<path class="st23" d="M44.24,17.165c11.507,0,20.835,9.328,20.835,20.834c0,11.507-9.328,20.835-20.835,20.835
				c-11.507,0-20.835-9.328-20.835-20.835C23.406,26.493,32.734,17.165,44.24,17.165 M44.24,16.164
				c-12.04,0-21.836,9.795-21.836,21.836S32.2,59.835,44.24,59.835S66.076,50.04,66.076,38S56.28,16.164,44.24,16.164L44.24,16.164z
				"/>
		</g>
		<g>
			<linearGradient id="SVGID_2_" gradientUnits="userSpaceOnUse" x1="44.2402" y1="52.6063" x2="44.2402" y2="23.393">
				<stop  offset="0" style="stop-color:#5C5C5C"/>
				<stop  offset="1" style="stop-color:#333333"/>
			</linearGradient>
			<circle class="st13" cx="44.24" cy="38" r="14.607"/>
			<g>
				<path class="st0" d="M44.24,24.422c7.487,0,13.577,6.091,13.577,13.577c0,7.487-6.091,13.577-13.577,13.577
					S30.663,45.486,30.663,38C30.663,30.513,36.754,24.422,44.24,24.422 M44.24,23.393c-8.067,0-14.607,6.54-14.607,14.607
					s6.54,14.607,14.607,14.607S58.847,46.067,58.847,38S52.307,23.393,44.24,23.393L44.24,23.393z"/>
				<path class="st1" d="M44.24,24.422c-7.487,0-13.577,6.091-13.577,13.577s6.091,13.577,13.577,13.577S57.817,45.486,57.817,38
					S51.727,24.422,44.24,24.422z M44.24,50.547c-6.919,0-12.548-5.629-12.548-12.548c0-6.919,5.629-12.548,12.548-12.548
					S56.788,31.081,56.788,38C56.788,44.919,51.159,50.547,44.24,50.547z"/>
			</g>
			<path class="st2" d="M44.24,25.452c-6.919,0-12.548,5.629-12.548,12.548c0,6.919,5.629,12.548,12.548,12.548
				S56.788,44.919,56.788,38C56.788,31.081,51.159,25.452,44.24,25.452z M44.24,49.518c-6.351,0-11.518-5.167-11.518-11.518
				s5.167-11.518,11.518-11.518S55.759,31.648,55.759,38S50.592,49.518,44.24,49.518z"/>
			<path class="st3" d="M44.24,26.481c-6.351,0-11.518,5.167-11.518,11.518s5.167,11.518,11.518,11.518S55.759,44.351,55.759,38
				S50.592,26.481,44.24,26.481z M44.24,48.489c-5.784,0-10.489-4.705-10.489-10.489s4.705-10.489,10.489-10.489
				S54.729,32.216,54.729,38S50.024,48.489,44.24,48.489z"/>
		</g>
	</g>
	<path class="st83" d="M31.542,52.895c-8.207-8.207-8.19-21.53,0.038-29.758c0.97-0.97,2.015-1.816,3.11-2.558
		c-1.505,0.867-2.932,1.922-4.219,3.209c-7.867,7.867-7.884,20.607-0.036,28.454c1.275,1.275,2.688,2.32,4.178,3.179
		C33.532,54.687,32.5,53.852,31.542,52.895z"/>
	<path class="st83" d="M56.578,52.895c8.207-8.207,8.19-21.53-0.038-29.758c-0.97-0.97-2.015-1.816-3.11-2.558
		c1.505,0.867,2.932,1.922,4.219,3.209c7.867,7.867,7.884,20.607,0.036,28.454c-1.275,1.275-2.688,2.32-4.178,3.179
		C54.587,54.687,55.62,53.852,56.578,52.895z"/>
</g>
</svg>
