<?xml version="1.0" encoding="utf-8"?>
<!-- Generator: Adobe Illustrator 18.1.1, SVG Export Plug-In . SVG Version: 6.00 Build 0)  -->
<svg version="1.1" id="Layer_1" xmlns="http://www.w3.org/2000/svg" xmlns:xlink="http://www.w3.org/1999/xlink" x="0px" y="0px"
	 width="180px" height="60px" viewBox="0 0 180 60" style="enable-background:new 0 0 180 60;" xml:space="preserve">
<style type="text/css">
	.st0{opacity:0.4;}
	.st1{opacity:0.3;}
	.st2{opacity:0.2;}
	.st3{opacity:0.1;}
	.st4{opacity:0.05;}
	.st5{fill:url(#);}
	.st6{fill:#73420E;}
	.st7{fill:#F4C990;}
	.st8{fill:#AA772D;}
	.st9{fill:#C18C36;}
	.st10{opacity:0.25;}
	.st11{fill:url(#SVGID_1_);}
	.st12{fill:#730000;}
	.st13{fill:url(#SVGID_2_);}
	.st14{opacity:0.05;fill:#993300;}
	.st15{fill:url(#SVGID_3_);}
	.st16{fill:url(#SVGID_4_);}
	.st17{fill:#990000;}
	.st18{fill:url(#SVGID_5_);}
	.st19{fill:url(#SVGID_6_);}
	.st20{fill:url(#SVGID_7_);}
	.st21{fill:url(#SVGID_8_);}
	.st22{fill:url(#SVGID_9_);}
	.st23{fill:#262626;}
	.st24{fill:url(#SVGID_10_);}
	.st25{fill:url(#SVGID_11_);}
	.st26{fill:url(#SVGID_12_);}
	.st27{fill:#333333;}
	.st28{fill:url(#SVGID_13_);}
	.st29{fill:url(#SVGID_14_);}
	.st30{fill:url(#SVGID_15_);}
	.st31{fill:url(#SVGID_16_);}
	.st32{fill:#086700;}
	.st33{fill:url(#SVGID_17_);}
	.st34{fill:url(#SVGID_18_);}
	.st35{fill:url(#SVGID_19_);}
	.st36{fill:url(#SVGID_20_);}
	.st37{fill:url(#SVGID_21_);}
	.st38{fill:url(#SVGID_22_);}
	.st39{fill:url(#SVGID_23_);}
	.st40{fill:url(#SVGID_24_);}
	.st41{fill:url(#SVGID_25_);}
	.st42{fill:url(#SVGID_26_);}
	.st43{fill:url(#SVGID_27_);}
	.st44{fill:url(#SVGID_28_);}
	.st45{fill:url(#SVGID_29_);}
	.st46{fill:url(#SVGID_30_);}
	.st47{fill:url(#SVGID_31_);}
	.st48{fill:url(#SVGID_32_);}
	.st49{fill:url(#SVGID_33_);}
	.st50{fill:url(#SVGID_34_);}
	.st51{fill:url(#SVGID_35_);}
	.st52{fill:url(#SVGID_36_);}
	.st53{fill:url(#SVGID_37_);}
	.st54{fill:url(#SVGID_38_);}
	.st55{fill:url(#SVGID_39_);}
	.st56{fill:url(#SVGID_40_);}
	.st57{fill:url(#SVGID_41_);}
	.st58{fill:url(#SVGID_42_);}
	.st59{fill:url(#SVGID_43_);}
	.st60{opacity:0.45;}
	.st61{fill:url(#SVGID_44_);}
	.st62{fill:url(#SVGID_45_);}
	.st63{fill:url(#SVGID_46_);}
	.st64{fill:url(#SVGID_47_);}
	.st65{opacity:0.35;fill:url(#SVGID_48_);}
	.st66{fill:url(#SVGID_49_);}
	.st67{fill:#FFFFFF;}
	.st68{fill:#666666;}
	.st69{fill:#FFFF00;}
	.st70{fill:#99FF00;}
	.st71{opacity:0.75;}
	.st72{fill:#FF0000;}
	.st73{display:none;fill:url(#SVGID_50_);}
	.st74{display:none;fill:url(#SVGID_51_);}
	.st75{fill:url(#Inside_Line_1_);}
	.st76{clip-path:url(#SVGID_52_);}
	.st77{fill:url(#SVGID_53_);}
	.st78{fill:#999999;}
	.st79{fill:url(#SVGID_54_);}
	.st80{opacity:0.5;fill:#FFFFFF;}
	.st81{fill:url(#SVGID_55_);}
	.st82{fill:url(#SVGID_56_);}
	.st83{opacity:0.15;fill:#FFFFFF;}
	.st84{fill:url(#SVGID_57_);}
	.st85{fill:url(#SVGID_58_);}
	.st86{fill:url(#SVGID_59_);}
	.st87{fill:url(#SVGID_60_);}
	.st88{fill:url(#SVGID_61_);}
	.st89{fill:url(#SVGID_62_);}
	.st90{fill:url(#SVGID_63_);}
	.st91{fill:url(#SVGID_64_);}
	.st92{fill:url(#SVGID_65_);}
	.st93{fill:url(#SVGID_66_);}
	.st94{fill:url(#SVGID_67_);}
	.st95{fill:url(#SVGID_68_);}
	.st96{fill:url(#SVGID_69_);}
	.st97{fill:url(#SVGID_70_);}
	.st98{fill:url(#SVGID_71_);}
	.st99{fill:url(#SVGID_72_);}
	.st100{fill:url(#SVGID_73_);}
	.st101{fill:url(#SVGID_74_);}
	.st102{fill:url(#SVGID_75_);}
	.st103{fill:url(#SVGID_76_);}
	.st104{fill:url(#SVGID_77_);}
	.st105{fill:url(#SVGID_78_);}
	.st106{fill:url(#SVGID_79_);}
	.st107{fill:url(#SVGID_80_);}
	.st108{fill:url(#SVGID_81_);}
	.st109{fill:url(#SVGID_82_);}
	.st110{fill:#00CC00;}
	.st111{fill:url(#SVGID_83_);}
	.st112{fill:url(#SVGID_84_);}
	.st113{fill:url(#SVGID_86_);}
	.st114{fill:url(#SVGID_87_);}
	.st115{fill:url(#SVGID_88_);}
	.st116{fill:url(#SVGID_89_);}
	.st117{fill:#1B1B1B;}
	.st118{fill:url(#SVGID_90_);}
	.st119{fill:url(#SVGID_91_);}
	.st120{fill:url(#SVGID_92_);}
	.st121{fill:#FF9900;}
	.st122{fill:url(#SVGID_93_);}
	.st123{fill:url(#SVGID_94_);}
	.st124{fill:url(#SVGID_95_);}
	.st125{fill:url(#SVGID_96_);}
	.st126{fill:url(#SVGID_97_);}
	.st127{fill:url(#SVGID_98_);}
	.st128{fill:url(#SVGID_99_);}
	.st129{fill:url(#SVGID_100_);}
	.st130{fill:url(#SVGID_101_);}
	.st131{fill:url(#SVGID_102_);}
	.st132{fill:url(#SVGID_103_);}
	.st133{fill:url(#SVGID_104_);}
	.st134{fill:url(#SVGID_105_);}
</style>
<g>
	<path id="Main_5_" class="st10" d="M164.386,6.154H12.614c-5.037,0-9.135,4.098-9.135,9.136v1.004v9.376v5.831V47.71
		c0,5.038,4.098,9.136,9.135,9.136h151.771c5.037,0,9.135-4.098,9.135-9.136V31.501v-5.831v-9.376V15.29
		C173.52,10.253,169.422,6.154,164.386,6.154z"/>
	<path id="Main_4_" d="M167.386,3.154H15.614c-5.037,0-9.135,4.098-9.135,9.136v1.004v9.376v5.831V44.71
		c0,5.038,4.098,9.136,9.135,9.136h151.771c5.037,0,9.135-4.098,9.135-9.136V28.501v-5.831v-9.376V12.29
		C176.52,7.253,172.422,3.154,167.386,3.154z"/>
	<path id="Top_Shine_2_" class="st27" d="M167.386,6.395H15.614c-3.795,0-6.896,3.104-6.896,6.899v15.207h165.563V13.294
		C174.282,9.499,171.181,6.395,167.386,6.395z"/>
	<path id="Highlight_2_" class="st68" d="M15.614,6.395h151.771c3.795,0,6.896,3.104,6.896,6.899V12.29
		c0-3.793-3.101-6.897-6.896-6.897H15.614c-3.795,0-6.896,3.104-6.896,6.897v1.004C8.718,9.499,11.82,6.395,15.614,6.395z"/>
	<g>
		<g>
			<g>
				<linearGradient id="SVGID_1_" gradientUnits="userSpaceOnUse" x1="44.2167" y1="41.7776" x2="44.2167" y2="15.2224">
					<stop  offset="0" style="stop-color:#333333"/>
					<stop  offset="1" style="stop-color:#000000"/>
				</linearGradient>
				<path class="st11" d="M56.029,41.778c0.809,0,1.466-0.656,1.466-1.466V16.688c0-0.81-0.656-1.466-1.466-1.466H32.405
					c-0.81,0-1.466,0.656-1.466,1.466v23.624c0,0.809,0.656,1.466,1.466,1.466H56.029z"/>
			</g>
			<g>
				<polygon points="55.065,27.4 47.065,27.4 47.065,19.4 43.065,19.4 43.065,27.4 35.065,27.4 35.065,31.4 43.065,31.4 
					43.065,39.4 47.065,39.4 47.065,31.4 55.065,31.4 				"/>
				<polygon class="st67" points="53.717,26 45.717,26 45.717,18 41.717,18 41.717,26 33.717,26 33.717,30 41.717,30 41.717,38 
					45.717,38 45.717,30 53.717,30 				"/>
			</g>
		</g>
		<g>
			<path d="M83.618,30.756c-0.219,0.27-0.53,0.515-0.945,0.744v3.943c0,0.278-0.133,0.54-0.357,0.704
				c-0.863,0.631-1.825,1.082-2.859,1.343c-0.995,0.25-2.237,0.377-3.692,0.377c-2.575,0-4.516-0.771-5.767-2.294
				c-1.227-1.491-1.822-3.774-1.822-6.979c0-3.175,0.724-5.586,2.152-7.168c1.451-1.606,3.447-2.421,5.934-2.421
				c2.415,0,4.434,0.568,5.999,1.69c0.229,0.163,0.364,0.428,0.364,0.709v0.558c0,0.33-0.058,0.823-0.181,1.552
				c-0.129,0.756-0.314,1.367-0.565,1.87c-0.147,0.295-0.45,0.481-0.78,0.481h-2.23c-0.321,0-0.616-0.176-0.769-0.459
				c-0.239-0.445-0.41-1.022-0.517-1.752c-0.453-0.109-0.933-0.165-1.431-0.165c-0.82,0-1.409,0.286-1.851,0.899
				c-0.34,0.471-0.745,1.526-0.745,3.878c0,5.117,1.826,5.117,2.426,5.117c0.527,0,1.015-0.058,1.456-0.171v-1.506
				c-0.604-0.263-1.048-0.582-1.346-0.967c-0.142-0.183-0.205-0.414-0.176-0.645l0.243-1.915c0.055-0.436,0.426-0.762,0.865-0.762
				h5.674c0.439,0,0.811,0.326,0.865,0.763l0.242,1.915C83.836,30.333,83.768,30.571,83.618,30.756z M100.886,34.225
				c0.157,0.185,0.23,0.428,0.201,0.669l-0.242,2.013c-0.053,0.438-0.425,0.768-0.866,0.768h-5.674
				c-0.441,0-0.813-0.329-0.866-0.768l-0.242-2.013c-0.026-0.223,0.033-0.447,0.167-0.627c0.187-0.249,0.446-0.468,0.798-0.669
				l-0.226-0.701h-3.569l-0.195,0.633c0.346,0.2,0.629,0.424,0.855,0.677c0.168,0.188,0.247,0.438,0.217,0.688L91,36.906
				c-0.053,0.438-0.425,0.768-0.866,0.768h-5.528c-0.441,0-0.813-0.329-0.866-0.768l-0.242-2.013
				c-0.027-0.229,0.037-0.46,0.179-0.642c0.344-0.439,0.877-0.792,1.622-1.071l4.519-13.508c0.119-0.356,0.452-0.596,0.827-0.596
				h3.321c0.372,0,0.703,0.235,0.825,0.588l4.693,13.609C100.11,33.54,100.571,33.853,100.886,34.225z M91.59,28.922h1.093
				l-0.543-1.746L91.59,28.922z M150.788,27.895c-0.789-0.828-1.854-1.441-3.162-1.824l-2.167-0.632
				c-0.898-0.252-1.152-0.479-1.21-0.543c-0.126-0.141-0.19-0.373-0.19-0.69c0-0.353,0.115-0.494,0.229-0.587
				c0.366-0.303,1.129-0.284,1.801-0.183c0.099,0.729,0.291,1.288,0.583,1.698c0.163,0.23,0.429,0.367,0.711,0.367h2.303
				c0.33,0,0.633-0.187,0.78-0.481c0.252-0.503,0.437-1.114,0.565-1.868c0.124-0.728,0.182-1.222,0.182-1.553v-0.558
				c0-0.338-0.194-0.646-0.501-0.789c-1.758-0.828-3.584-1.247-5.427-1.247c-1.922,0-3.517,0.512-4.738,1.521
				c-1.272,1.05-1.917,2.464-1.917,4.201c0,2.889,1.534,4.855,4.435,5.688l2.485,0.724c0.421,0.13,0.635,0.274,0.739,0.372
				c0.152,0.144,0.194,0.224,0.197,0.224c0,0,0,0,0-0.001c0.021,0.092,0.048,0.263,0.048,0.56c0,0.486-0.188,0.689-0.372,0.824
				c-0.333,0.245-0.771,0.364-1.338,0.364c-0.424,0-0.812-0.045-1.158-0.134c-0.086-0.699-0.252-1.282-0.503-1.77
				c-0.149-0.29-0.448-0.473-0.775-0.473h-2.304c-0.33,0-0.633,0.187-0.78,0.481c-0.248,0.496-0.438,1.124-0.565,1.868
				c-0.122,0.714-0.181,1.222-0.181,1.553v0.558c0,0.292,0.146,0.563,0.388,0.726c0.76,0.507,1.713,0.903,2.836,1.178
				c1.089,0.266,2.165,0.399,3.2,0.399c1.958,0,3.631-0.546,4.972-1.622c1.399-1.123,2.108-2.665,2.108-4.584
				C152.061,30.045,151.633,28.777,150.788,27.895z M137.756,32.582v4.22c0,0.481-0.391,0.872-0.872,0.872h-11.251
				c-0.441,0-0.813-0.329-0.866-0.768l-0.242-2.013c-0.027-0.226,0.034-0.452,0.172-0.633c0.241-0.316,0.614-0.592,1.155-0.849
				v-9.924c-0.531-0.256-0.915-0.549-1.164-0.89c-0.132-0.179-0.189-0.4-0.163-0.62l0.242-2.012
				c0.053-0.438,0.425-0.768,0.866-0.768h11.057c0.481,0,0.872,0.391,0.872,0.872v4.219c0,0.441-0.329,0.812-0.767,0.866
				l-0.712,0.086c0.303,0.139,0.509,0.444,0.509,0.794v4.315c0,0.439-0.326,0.811-0.762,0.865l-1.527,0.194
				c-0.23,0.03-0.459-0.032-0.64-0.172c-0.245-0.187-0.456-0.459-0.649-0.84h-1.926v2.887h2.454c0.24-0.682,0.556-1.196,0.957-1.565
				c0.188-0.172,0.443-0.25,0.695-0.223l1.795,0.218C137.427,31.769,137.756,32.141,137.756,32.582z M134.146,24.995
				c-0.318-0.339-0.581-0.805-0.794-1.409h-2.264v2.427h1.938c0.178-0.337,0.368-0.598,0.577-0.79
				C133.753,25.086,133.946,25.006,134.146,24.995z M123.598,22.45c0.131-0.181,0.188-0.404,0.159-0.625l-0.242-1.866
				c-0.057-0.435-0.427-0.76-0.865-0.76h-5.432c-0.372,0-0.703,0.235-0.825,0.588l-3.351,9.721
				c-0.098,0.234-0.188,0.465-0.271,0.692c-0.081-0.217-0.168-0.436-0.262-0.654l-3.54-9.771c-0.125-0.346-0.453-0.575-0.82-0.575
				h-5.528c-0.438,0-0.809,0.325-0.865,0.76l-0.242,1.866c-0.028,0.221,0.028,0.443,0.158,0.624
				c0.275,0.381,0.676,0.698,1.217,0.963v10.061c-0.48,0.251-0.865,0.562-1.149,0.926c-0.143,0.184-0.207,0.417-0.177,0.648
				l0.242,1.867c0.057,0.435,0.427,0.76,0.865,0.76h4.752c0.438,0,0.809-0.325,0.865-0.76l0.243-1.867
				c0.03-0.231-0.034-0.466-0.178-0.649c-0.285-0.364-0.67-0.674-1.149-0.925v-3.903l2.695,7.526
				c0.124,0.347,0.453,0.578,0.821,0.578h3.225c0.374,0,0.706-0.237,0.826-0.591l2.521-7.411v3.724
				c-0.498,0.249-0.875,0.537-1.143,0.873c-0.147,0.183-0.214,0.417-0.186,0.65l0.242,1.988c0.054,0.438,0.425,0.767,0.866,0.767
				h5.529c0.441,0,0.813-0.329,0.866-0.768l0.242-2.013c0.028-0.232-0.039-0.467-0.186-0.649c-0.268-0.336-0.645-0.624-1.143-0.873
				v-9.959C122.921,23.148,123.322,22.83,123.598,22.45z"/>
			<path class="st67" d="M76.152,23.617c-1.1,0-1.952,0.42-2.559,1.261c-0.605,0.841-0.909,2.304-0.909,4.389
				c0,3.993,1.1,5.989,3.298,5.989c0.873,0,1.648-0.138,2.328-0.412v-2.74c-0.744-0.242-1.253-0.542-1.528-0.897l0.243-1.915h5.674
				l0.242,1.915c-0.21,0.259-0.59,0.51-1.14,0.752v4.485c-0.775,0.566-1.629,0.967-2.558,1.2c-0.93,0.234-2.09,0.352-3.479,0.352
				c-2.312,0-4.01-0.658-5.093-1.976s-1.624-3.459-1.624-6.426c0-2.966,0.643-5.16,1.928-6.583s3.047-2.134,5.286-2.134
				c2.238,0,4.069,0.509,5.491,1.527c0,0.097,0,0.283,0,0.558c0,0.275-0.057,0.744-0.169,1.406
				c-0.113,0.663-0.275,1.205-0.485,1.625h-2.23c-0.243-0.452-0.404-1.123-0.485-2.013C77.687,23.738,76.944,23.617,76.152,23.617z
				 M93.965,20.949L98.79,34.94c0.68,0.242,1.156,0.525,1.431,0.849l-0.242,2.013h-5.674l-0.242-2.013
				c0.193-0.259,0.582-0.501,1.164-0.728l-0.655-2.037h-4.85l-0.605,1.965c0.565,0.227,0.985,0.493,1.261,0.8l-0.243,2.013h-5.528
				l-0.242-2.013c0.291-0.372,0.832-0.679,1.625-0.922l4.655-13.918H93.965z M91.953,24.344c0,0.986-0.203,2.134-0.606,3.443
				l-0.945,3.007h3.467l-0.921-2.958c-0.372-1.132-0.582-2.158-0.631-3.079l-0.024-0.413H91.953z M118.164,28.66
				c0-0.646,0.057-1.648,0.17-3.007l0.048-0.582l-0.242-0.023c-0.372,1.374-0.695,2.465-0.97,3.272l-3.226,9.481h-3.225
				l-3.395-9.481c-0.308-0.727-0.582-1.632-0.824-2.715l-0.146-0.558l-0.242,0.023c0.146,1.439,0.218,2.636,0.218,3.589v6.377
				c0.598,0.227,1.043,0.525,1.334,0.897l-0.243,1.867h-4.752l-0.242-1.867c0.29-0.372,0.735-0.671,1.333-0.897V23.835
				c-0.663-0.242-1.124-0.541-1.382-0.897l0.242-1.866h5.528l3.54,9.771c0.453,1.066,0.743,2.045,0.873,2.934l0.073,0.412h0.339
				c0.064-0.985,0.355-2.101,0.873-3.346l3.37-9.771h5.432l0.242,1.866c-0.259,0.356-0.719,0.655-1.382,0.897V34.94
				c0.631,0.242,1.075,0.525,1.334,0.849l-0.242,2.013h-5.529l-0.242-1.988c0.259-0.323,0.703-0.606,1.334-0.849V28.66z
				 M136.884,37.802h-11.251l-0.242-2.013c0.209-0.274,0.654-0.541,1.333-0.8V23.908c-0.663-0.243-1.107-0.518-1.333-0.825
				l0.242-2.012h11.057v4.219l-1.794,0.218c-0.372-0.323-0.671-0.921-0.897-1.794h-3.782v4.171h3.37
				c0.193-0.485,0.396-0.825,0.606-1.019l1.527,0.17v4.315l-1.527,0.194c-0.211-0.161-0.413-0.501-0.606-1.019h-3.37v4.631h3.977
				c0.209-0.84,0.509-1.438,0.896-1.794l1.795,0.218V37.802z M146.897,23.714c-0.55-0.146-1.124-0.219-1.722-0.219
				c-0.599,0-1.079,0.15-1.442,0.449c-0.364,0.299-0.546,0.72-0.546,1.261c0,0.542,0.138,0.966,0.412,1.272
				c0.274,0.308,0.816,0.574,1.625,0.801l2.158,0.63c1.163,0.34,2.089,0.869,2.775,1.589c0.688,0.719,1.031,1.774,1.031,3.164
				c0,1.648-0.595,2.95-1.782,3.903c-1.188,0.954-2.664,1.431-4.426,1.431c-0.97,0-1.968-0.125-2.994-0.375
				c-1.026-0.251-1.879-0.603-2.558-1.056c0-0.097,0-0.282,0-0.558c0-0.274,0.056-0.743,0.169-1.406
				c0.113-0.662,0.275-1.204,0.485-1.624h2.304c0.258,0.501,0.412,1.172,0.46,2.013c0.566,0.242,1.225,0.363,1.977,0.363
				s1.37-0.178,1.854-0.533c0.485-0.355,0.728-0.865,0.728-1.527c0-0.308-0.023-0.562-0.072-0.765
				c-0.049-0.201-0.198-0.42-0.448-0.654c-0.251-0.234-0.61-0.425-1.079-0.569l-2.498-0.728c-2.538-0.728-3.807-2.344-3.807-4.85
				c0-1.471,0.533-2.647,1.601-3.528c1.066-0.881,2.461-1.321,4.183-1.321s3.406,0.388,5.056,1.164c0,0.097,0,0.283,0,0.558
				s-0.057,0.743-0.17,1.406s-0.275,1.204-0.485,1.624h-2.303C147.107,25.241,146.946,24.603,146.897,23.714z"/>
		</g>
	</g>
</g>
</svg>
