<?xml version="1.0" encoding="utf-8"?>
<!-- Generator: Adobe Illustrator 19.1.0, SVG Export Plug-In . SVG Version: 6.00 Build 0)  -->
<svg version="1.1" id="Layer_1" xmlns="http://www.w3.org/2000/svg" xmlns:xlink="http://www.w3.org/1999/xlink" x="0px" y="0px"
	 width="55px" height="55px" viewBox="0 0 55 55" style="enable-background:new 0 0 55 55;" xml:space="preserve">
<style type="text/css">
	.st0{opacity:0.4;}
	.st1{opacity:0.3;}
	.st2{opacity:0.2;}
	.st3{opacity:0.1;}
	.st4{opacity:0.05;}
	.st5{opacity:0.25;}
	.st6{fill:url(#SVGID_1_);}
	.st7{fill:#730000;}
	.st8{fill:url(#SVGID_2_);}
	.st9{opacity:0.05;fill:#993300;}
	.st10{fill:url(#SVGID_3_);}
	.st11{fill:url(#SVGID_4_);}
	.st12{fill:#990000;}
	.st13{fill:url(#SVGID_5_);}
	.st14{fill:url(#SVGID_6_);}
	.st15{fill:url(#SVGID_7_);}
	.st16{fill:url(#SVGID_8_);}
	.st17{fill:url(#SVGID_9_);}
	.st18{fill:#262626;}
	.st19{fill:url(#SVGID_10_);}
	.st20{fill:url(#SVGID_11_);}
	.st21{fill:url(#SVGID_12_);}
	.st22{fill:#333333;}
	.st23{fill:url(#SVGID_13_);}
	.st24{fill:url(#SVGID_14_);}
	.st25{fill:url(#SVGID_15_);}
	.st26{fill:url(#SVGID_16_);}
	.st27{fill:url(#SVGID_17_);}
	.st28{fill:url(#SVGID_18_);}
	.st29{fill:url(#SVGID_19_);}
	.st30{fill:url(#SVGID_20_);}
	.st31{fill:url(#SVGID_21_);}
	.st32{fill:url(#SVGID_22_);}
	.st33{fill:url(#SVGID_23_);}
	.st34{fill:url(#SVGID_24_);}
	.st35{fill:url(#SVGID_25_);}
	.st36{fill:url(#SVGID_26_);}
	.st37{fill:url(#SVGID_27_);}
	.st38{fill:url(#SVGID_28_);}
	.st39{fill:url(#SVGID_29_);}
	.st40{fill:url(#SVGID_30_);}
	.st41{fill:url(#SVGID_31_);}
	.st42{fill:url(#SVGID_32_);}
	.st43{fill:url(#SVGID_33_);}
	.st44{fill:url(#SVGID_34_);}
	.st45{fill:url(#SVGID_35_);}
	.st46{fill:url(#SVGID_36_);}
	.st47{fill:url(#SVGID_37_);}
	.st48{fill:url(#SVGID_38_);}
	.st49{fill:url(#SVGID_39_);}
	.st50{fill:url(#SVGID_40_);}
	.st51{fill:url(#SVGID_41_);}
	.st52{fill:url(#SVGID_42_);}
	.st53{fill:url(#SVGID_43_);}
	.st54{opacity:0.45;}
	.st55{fill:url(#SVGID_44_);}
	.st56{fill:url(#SVGID_45_);}
	.st57{fill:url(#SVGID_46_);}
	.st58{fill:url(#SVGID_47_);}
	.st59{opacity:0.35;fill:url(#SVGID_48_);}
	.st60{fill:url(#SVGID_49_);}
	.st61{fill:#FFFFFF;}
	.st62{fill:#666666;}
	.st63{fill:#FFFF00;}
	.st64{fill:#99FF00;}
	.st65{opacity:0.75;}
	.st66{fill:#FF0000;}
	.st67{fill:#00CC00;}
	.st68{fill:url(#SVGID_50_);}
	.st69{fill:url(#SVGID_51_);}
	.st70{opacity:0.15;fill:#FFFFFF;}
	.st71{fill:url(#SVGID_52_);}
	.st72{fill:url(#SVGID_53_);}
	.st73{fill:url(#SVGID_54_);}
	.st74{fill:url(#SVGID_55_);}
	.st75{fill:#1B1B1B;}
	.st76{fill:url(#SVGID_56_);}
	.st77{fill:url(#SVGID_57_);}
	.st78{fill:url(#SVGID_58_);}
	.st79{fill:#FF9900;}
	.st80{fill:url(#SVGID_59_);}
	.st81{fill:url(#SVGID_60_);}
	.st82{fill:url(#SVGID_61_);}
	.st83{fill:url(#SVGID_62_);}
	.st84{fill:url(#SVGID_63_);}
	.st85{fill:url(#SVGID_64_);}
	.st86{fill:url(#SVGID_65_);}
	.st87{fill:url(#SVGID_66_);}
	.st88{fill:url(#SVGID_67_);}
	.st89{fill:url(#SVGID_68_);}
	.st90{fill:url(#SVGID_69_);}
	.st91{fill:url(#SVGID_70_);}
	.st92{fill:url(#SVGID_71_);}
	.st93{fill:url(#Inside_Line_1_);}
	.st94{fill:url(#);}
	.st95{fill:url(#SVGID_72_);}
	.st96{fill:url(#SVGID_73_);}
	.st97{fill:url(#SVGID_74_);}
	.st98{fill:url(#SVGID_75_);}
	.st99{fill:url(#SVGID_76_);}
	.st100{fill:url(#SVGID_77_);}
	.st101{fill:url(#SVGID_78_);}
	.st102{fill:url(#SVGID_79_);}
	.st103{fill:url(#SVGID_80_);}
	.st104{fill:url(#SVGID_81_);}
	.st105{fill:url(#SVGID_82_);}
	.st106{fill:url(#SVGID_83_);}
	.st107{fill:url(#SVGID_84_);}
	.st108{fill:url(#SVGID_85_);}
	.st109{fill:url(#SVGID_86_);}
	.st110{fill:#999999;}
	.st111{fill:url(#SVGID_87_);}
	.st112{opacity:0.5;fill:#FFFFFF;}
	.st113{fill:url(#SVGID_88_);}
	.st114{fill:url(#SVGID_89_);}
	.st115{fill:url(#SVGID_90_);}
	.st116{fill:url(#SVGID_91_);}
	.st117{fill:url(#SVGID_92_);}
	.st118{fill:url(#SVGID_93_);}
	.st119{fill:url(#SVGID_94_);}
	.st120{fill:url(#SVGID_95_);}
	.st121{fill:url(#SVGID_96_);}
	.st122{fill:url(#SVGID_97_);}
	.st123{fill:url(#SVGID_98_);}
	.st124{fill:url(#SVGID_99_);}
	.st125{fill:url(#SVGID_100_);}
	.st126{fill:url(#SVGID_101_);}
	.st127{fill:url(#SVGID_102_);}
	.st128{fill:url(#SVGID_103_);}
	.st129{fill:#73420E;}
	.st130{fill:#F4C990;}
	.st131{fill:#AA772D;}
	.st132{fill:#C18C36;}
</style>
<g>
	<g>
		<path class="st5" d="M40.674,6.268H11.326c-4.442,0-8.056,3.614-8.056,8.057v0.909v8.488v5.278v14.673
			c0,4.443,3.614,8.057,8.056,8.057h29.349c4.442,0,8.056-3.615,8.056-8.057V29.001v-5.278v-8.488v-0.909
			C48.73,9.883,45.117,6.268,40.674,6.268z"/>
	</g>
	<g>
		<g id="BACK_BTN_20_">
			<g>
				<g>
					<path d="M14.326,47.825c-3.942,0-7.15-3.208-7.15-7.151V11.325c0-3.943,3.208-7.151,7.15-7.151h29.349
						c3.942,0,7.149,3.208,7.149,7.151v29.349c0,3.943-3.208,7.151-7.149,7.151H14.326z"/>
					<g>
						<path d="M43.675,5.081c3.435,0,6.243,2.81,6.243,6.244v0.909v8.488v5.278v14.673c0,3.434-2.807,6.244-6.243,6.244H14.325
							c-3.435,0-6.243-2.81-6.243-6.244V26.001v-5.278v-8.488v-0.909c0-3.434,2.807-6.244,6.243-6.244H43.675 M43.675,3.268H14.325
							c-4.442,0-8.056,3.614-8.056,8.057v0.909v8.488v5.278v14.673c0,4.443,3.614,8.057,8.056,8.057h29.349
							c4.442,0,8.056-3.615,8.056-8.057V26.001v-5.278v-8.488v-0.909C51.731,6.883,48.117,3.268,43.675,3.268L43.675,3.268z"/>
					</g>
				</g>
				<g>
					<path class="st22" d="M43.675,5.989H14.325c-3.435,0-6.243,2.81-6.243,6.246v13.767h41.835V12.234
						C49.917,8.799,47.11,5.989,43.675,5.989z"/>
					<path class="st62" d="M14.325,5.989h29.349c3.435,0,6.243,2.81,6.243,6.246v-0.909c0-3.434-2.807-6.244-6.243-6.244H14.325
						c-3.435,0-6.243,2.81-6.243,6.244v0.909C8.083,8.799,10.89,5.989,14.325,5.989z"/>
				</g>
			</g>
		</g>
		<g>
			<g>
				<g>
					<path d="M39.405,43.243c-3.375,0-4.818,0-4.818,0c-0.283,0-0.514-0.231-0.514-0.514v-9.44c0-0.283-0.231-0.514-0.514-0.514
						H31.31c-0.283,0-0.745,0-1.028,0h-2.249c-0.283,0-0.514,0.231-0.514,0.514v9.44c0,0.283-0.231,0.514-0.514,0.514
						c0,0-1.443,0-4.818,0c-3.375,0-3.164-3.205-3.164-3.205c0.019-0.282,0.034-0.744,0.034-1.027V28.936
						c0-0.283,0.184-0.655,0.408-0.827l10.924-8.375c0.224-0.172,0.591-0.172,0.816,0l10.924,8.375
						c0.224,0.172,0.408,0.544,0.408,0.827v10.076c0,0.283,0.015,0.745,0.034,1.027C42.569,40.038,42.78,43.243,39.405,43.243z
						 M41.454,21.776c-0.222-0.175-0.403-0.55-0.403-0.833v-3.292c0-0.283-0.231-0.514-0.514-0.514h-2.296
						c-0.283,0-0.514,0.231-0.514,0.514v0.666c0,0.283-0.181,0.371-0.403,0.195l-3.924-3.099c-0.222-0.175-0.585-0.462-0.807-0.637
						l-1.395-1.102c-0.222-0.175-0.585-0.175-0.807,0l-1.395,1.102c-0.222,0.175-0.585,0.462-0.807,0.637L15.159,25.709
						c-0.222,0.175-0.26,0.5-0.085,0.722l1.054,1.335c0.175,0.222,0.5,0.26,0.722,0.085l13.542-10.697
						c0.222-0.175,0.585-0.175,0.807,0L44.742,27.85c0.222,0.175,0.547,0.137,0.722-0.085l1.054-1.335
						c0.175-0.222,0.137-0.547-0.085-0.722L41.454,21.776z"/>
				</g>
			</g>
			<g>
				<g>
					<path class="st61" d="M37.96,41.823c-3.375,0-4.818,0-4.818,0c-0.283,0-0.514-0.231-0.514-0.514v-9.44
						c0-0.283-0.231-0.514-0.514-0.514h-2.249c-0.283,0-0.745,0-1.028,0h-2.249c-0.283,0-0.514,0.231-0.514,0.514v9.44
						c0,0.283-0.231,0.514-0.514,0.514c0,0-1.443,0-4.818,0c-3.375,0-3.164-3.205-3.164-3.205c0.019-0.282,0.034-0.744,0.034-1.027
						V27.516c0-0.283,0.184-0.655,0.408-0.827l10.924-8.375c0.224-0.172,0.591-0.172,0.816,0l10.924,8.375
						c0.224,0.172,0.408,0.544,0.408,0.827v10.076c0,0.283,0.015,0.745,0.034,1.027C41.124,38.618,41.335,41.823,37.96,41.823z
						 M40.009,20.356c-0.222-0.175-0.403-0.55-0.403-0.833v-3.292c0-0.283-0.231-0.514-0.514-0.514h-2.296
						c-0.283,0-0.514,0.231-0.514,0.514v0.666c0,0.283-0.181,0.371-0.403,0.195l-3.924-3.099c-0.222-0.175-0.585-0.462-0.807-0.637
						l-1.395-1.102c-0.222-0.175-0.585-0.175-0.807,0l-1.395,1.102c-0.222,0.175-0.585,0.462-0.807,0.637L13.714,24.289
						c-0.222,0.175-0.26,0.5-0.085,0.722l1.054,1.335c0.175,0.222,0.5,0.26,0.722,0.085l13.542-10.697
						c0.222-0.175,0.585-0.175,0.807,0L43.296,26.43c0.222,0.175,0.547,0.137,0.722-0.085l1.054-1.335
						c0.175-0.222,0.137-0.547-0.085-0.722L40.009,20.356z"/>
				</g>
			</g>
		</g>
	</g>
</g>
</svg>
