<?xml version="1.0" encoding="utf-8"?>
<!-- Generator: Adobe Illustrator 18.1.1, SVG Export Plug-In . SVG Version: 6.00 Build 0)  -->
<svg version="1.1" id="Layer_1" xmlns="http://www.w3.org/2000/svg" xmlns:xlink="http://www.w3.org/1999/xlink" x="0px" y="0px"
	 width="85px" height="75px" viewBox="0 0 85 75" style="enable-background:new 0 0 85 75;" xml:space="preserve">
<style type="text/css">
	.st0{opacity:0.4;}
	.st1{opacity:0.3;}
	.st2{opacity:0.2;}
	.st3{opacity:0.1;}
	.st4{opacity:0.05;}
	.st5{fill:url(#);}
	.st6{fill:#73420E;}
	.st7{fill:#F4C990;}
	.st8{fill:#AA772D;}
	.st9{fill:#C18C36;}
	.st10{opacity:0.25;}
	.st11{fill:url(#SVGID_1_);}
	.st12{fill:#730000;}
	.st13{fill:url(#SVGID_2_);}
	.st14{opacity:0.05;fill:#993300;}
	.st15{fill:url(#SVGID_3_);}
	.st16{fill:url(#SVGID_4_);}
	.st17{fill:#990000;}
	.st18{fill:url(#SVGID_5_);}
	.st19{fill:url(#SVGID_6_);}
	.st20{fill:url(#SVGID_7_);}
	.st21{fill:url(#SVGID_8_);}
	.st22{fill:url(#SVGID_9_);}
	.st23{fill:#262626;}
	.st24{fill:url(#SVGID_10_);}
	.st25{fill:url(#SVGID_11_);}
	.st26{fill:url(#SVGID_12_);}
	.st27{fill:#333333;}
	.st28{fill:url(#SVGID_13_);}
	.st29{fill:url(#SVGID_14_);}
	.st30{fill:url(#SVGID_15_);}
	.st31{fill:url(#SVGID_16_);}
	.st32{fill:#086700;}
	.st33{fill:url(#SVGID_17_);}
	.st34{fill:url(#SVGID_18_);}
	.st35{fill:url(#SVGID_19_);}
	.st36{fill:url(#SVGID_20_);}
	.st37{fill:url(#SVGID_21_);}
	.st38{fill:url(#SVGID_22_);}
	.st39{fill:url(#SVGID_23_);}
	.st40{fill:url(#SVGID_24_);}
	.st41{fill:url(#SVGID_25_);}
	.st42{fill:url(#SVGID_26_);}
	.st43{fill:url(#SVGID_27_);}
	.st44{fill:url(#SVGID_28_);}
	.st45{fill:url(#SVGID_29_);}
	.st46{fill:url(#SVGID_30_);}
	.st47{fill:url(#SVGID_31_);}
	.st48{fill:url(#SVGID_32_);}
	.st49{fill:url(#SVGID_33_);}
	.st50{fill:url(#SVGID_34_);}
	.st51{fill:url(#SVGID_35_);}
	.st52{fill:url(#SVGID_36_);}
	.st53{fill:url(#SVGID_37_);}
	.st54{fill:url(#SVGID_38_);}
	.st55{fill:url(#SVGID_39_);}
	.st56{fill:url(#SVGID_40_);}
	.st57{fill:url(#SVGID_41_);}
	.st58{fill:url(#SVGID_42_);}
	.st59{fill:url(#SVGID_43_);}
	.st60{opacity:0.45;}
	.st61{fill:url(#SVGID_44_);}
	.st62{fill:url(#SVGID_45_);}
	.st63{fill:url(#SVGID_46_);}
	.st64{fill:url(#SVGID_47_);}
	.st65{opacity:0.35;fill:url(#SVGID_48_);}
	.st66{fill:url(#SVGID_49_);}
	.st67{fill:#FFFFFF;}
	.st68{fill:#666666;}
	.st69{fill:#FFFF00;}
	.st70{fill:#99FF00;}
	.st71{opacity:0.75;}
	.st72{fill:#FF0000;}
	.st73{display:none;fill:url(#SVGID_50_);}
	.st74{display:none;fill:url(#SVGID_51_);}
	.st75{fill:url(#Inside_Line_1_);}
	.st76{clip-path:url(#SVGID_52_);}
	.st77{fill:url(#SVGID_53_);}
	.st78{fill:#999999;}
	.st79{fill:url(#SVGID_54_);}
	.st80{opacity:0.5;fill:#FFFFFF;}
	.st81{fill:url(#SVGID_55_);}
	.st82{fill:url(#SVGID_56_);}
	.st83{opacity:0.15;fill:#FFFFFF;}
	.st84{fill:url(#SVGID_57_);}
	.st85{fill:url(#SVGID_58_);}
	.st86{fill:url(#SVGID_59_);}
	.st87{fill:url(#SVGID_60_);}
	.st88{fill:url(#SVGID_61_);}
	.st89{fill:url(#SVGID_62_);}
	.st90{fill:url(#SVGID_63_);}
	.st91{fill:url(#SVGID_64_);}
	.st92{fill:url(#SVGID_65_);}
	.st93{fill:url(#SVGID_66_);}
	.st94{fill:url(#SVGID_67_);}
	.st95{fill:url(#SVGID_68_);}
	.st96{fill:url(#SVGID_69_);}
	.st97{fill:url(#SVGID_70_);}
	.st98{fill:url(#SVGID_71_);}
	.st99{fill:url(#SVGID_72_);}
	.st100{fill:url(#SVGID_73_);}
	.st101{fill:url(#SVGID_74_);}
	.st102{fill:url(#SVGID_75_);}
	.st103{fill:url(#SVGID_76_);}
	.st104{fill:url(#SVGID_77_);}
	.st105{fill:url(#SVGID_78_);}
	.st106{fill:url(#SVGID_79_);}
	.st107{fill:url(#SVGID_80_);}
	.st108{fill:url(#SVGID_81_);}
	.st109{fill:url(#SVGID_82_);}
	.st110{fill:#00CC00;}
	.st111{fill:url(#SVGID_83_);}
	.st112{fill:url(#SVGID_84_);}
	.st113{fill:url(#SVGID_86_);}
	.st114{fill:url(#SVGID_87_);}
	.st115{fill:url(#SVGID_88_);}
	.st116{fill:url(#SVGID_89_);}
	.st117{fill:#1B1B1B;}
	.st118{fill:url(#SVGID_90_);}
	.st119{fill:url(#SVGID_91_);}
	.st120{fill:url(#SVGID_92_);}
	.st121{fill:#FF9900;}
	.st122{fill:url(#SVGID_93_);}
	.st123{fill:url(#SVGID_94_);}
	.st124{fill:url(#SVGID_95_);}
	.st125{fill:url(#SVGID_96_);}
	.st126{fill:url(#SVGID_97_);}
	.st127{fill:url(#SVGID_98_);}
	.st128{fill:url(#SVGID_99_);}
	.st129{fill:url(#SVGID_100_);}
	.st130{fill:url(#SVGID_101_);}
	.st131{fill:url(#SVGID_102_);}
	.st132{fill:url(#SVGID_103_);}
	.st133{fill:url(#SVGID_104_);}
	.st134{fill:url(#SVGID_105_);}
</style>
<g>
	<path class="st10" d="M61.443,71.618H20.557c-8.066,0-14.628-6.563-14.628-14.63V21.012c0-8.067,6.562-14.63,14.628-14.63h40.887
		c8.066,0,14.628,6.563,14.628,14.63v35.976C76.071,65.055,69.509,71.618,61.443,71.618z"/>
	<path class="st67" d="M64.443,68.618H23.557c-8.066,0-14.628-6.563-14.628-14.63V18.012c0-8.067,6.562-14.63,14.628-14.63h40.887
		c8.066,0,14.628,6.563,14.628,14.63v35.976C79.071,62.055,72.509,68.618,64.443,68.618z"/>
	<path d="M64.443,5.468H23.556c-6.915,0-12.542,5.627-12.542,12.544v1.34v12.516v7.783v14.337c0,6.917,5.627,12.544,12.542,12.544
		h40.887c6.916,0,12.542-5.627,12.542-12.544V39.651v-7.783V19.352v-1.34C76.986,11.095,71.359,5.468,64.443,5.468z"/>
	<path class="st27" d="M64.443,10.143H23.557c-5.065,0-9.205,4.144-9.205,9.209v14.753h59.297V19.352
		C73.649,14.287,69.509,10.143,64.443,10.143z"/>
	<path class="st68" d="M23.557,10.143h40.887c5.066,0,9.205,4.144,9.205,9.209v-1.34c0-5.064-4.14-9.207-9.205-9.207H23.557
		c-5.065,0-9.205,4.143-9.205,9.207v1.34C14.351,14.287,18.491,10.143,23.557,10.143z"/>
	<path d="M44,14.496C31.04,14.496,20.496,25.04,20.496,38S31.04,61.504,44,61.504c12.96,0,23.504-10.544,23.504-23.504
		S56.96,14.496,44,14.496z"/>
	<g>
		<g>
			<linearGradient id="SVGID_1_" gradientUnits="userSpaceOnUse" x1="44" y1="59.3351" x2="44" y2="16.6651">
				<stop  offset="0" style="stop-color:#990000"/>
				<stop  offset="0.5" style="stop-color:#FF3300"/>
				<stop  offset="1" style="stop-color:#990000"/>
			</linearGradient>
			<path class="st11" d="M44,59.335c-11.764,0-21.335-9.571-21.335-21.335S32.236,16.665,44,16.665S65.335,26.236,65.335,38
				S55.764,59.335,44,59.335z"/>
			<path class="st12" d="M44,17.166c11.506,0,20.834,9.328,20.834,20.834S55.506,58.834,44,58.834S23.166,49.507,23.166,38
				S32.493,17.166,44,17.166 M44,16.165c-12.04,0-21.835,9.795-21.835,21.835S31.96,59.836,44,59.836S65.835,50.04,65.835,38
				S56.04,16.165,44,16.165L44,16.165z"/>
		</g>
		<g>
			<linearGradient id="SVGID_2_" gradientUnits="userSpaceOnUse" x1="44" y1="52.6066" x2="44" y2="23.3934">
				<stop  offset="0" style="stop-color:#FF0000"/>
				<stop  offset="1" style="stop-color:#990000"/>
			</linearGradient>
			<circle class="st13" cx="44" cy="38" r="14.607"/>
			<g>
				<path class="st1" d="M44,24.423c7.487,0,13.577,6.091,13.577,13.577c0,7.486-6.091,13.577-13.577,13.577
					S30.423,45.487,30.423,38C30.423,30.514,36.513,24.423,44,24.423 M44,23.393c-8.067,0-14.607,6.54-14.607,14.607
					S35.933,52.607,44,52.607S58.607,46.067,58.607,38S52.067,23.393,44,23.393L44,23.393z"/>
				<path class="st2" d="M44,24.423c-7.487,0-13.577,6.091-13.577,13.577S36.513,51.577,44,51.577S57.577,45.487,57.577,38
					S51.487,24.423,44,24.423z M44,50.548c-6.919,0-12.548-5.629-12.548-12.548c0-6.919,5.629-12.548,12.548-12.548
					S56.548,31.081,56.548,38C56.548,44.919,50.919,50.548,44,50.548z"/>
			</g>
			<path class="st3" d="M44,25.452c-6.919,0-12.548,5.629-12.548,12.548c0,6.919,5.629,12.548,12.548,12.548
				S56.548,44.919,56.548,38C56.548,31.081,50.919,25.452,44,25.452z M44,49.518c-6.351,0-11.518-5.167-11.518-11.518
				S37.649,26.482,44,26.482S55.518,31.649,55.518,38S50.351,49.518,44,49.518z"/>
			<path class="st14" d="M44,26.482c-6.351,0-11.518,5.167-11.518,11.518S37.649,49.518,44,49.518S55.518,44.351,55.518,38
				S50.351,26.482,44,26.482z M44,48.489c-5.784,0-10.489-4.705-10.489-10.489S38.216,27.511,44,27.511S54.489,32.216,54.489,38
				S49.784,48.489,44,48.489z"/>
		</g>
	</g>
	<linearGradient id="SVGID_3_" gradientUnits="userSpaceOnUse" x1="30.4759" y1="55.5634" x2="29.2607" y2="20.7666">
		<stop  offset="0" style="stop-color:#DA1501"/>
		<stop  offset="0.5" style="stop-color:#FD4B00"/>
		<stop  offset="1" style="stop-color:#DA1501"/>
	</linearGradient>
	<path class="st15" d="M31.482,52.895c-8.207-8.207-8.19-21.53,0.038-29.758c0.97-0.97,2.015-1.816,3.11-2.558
		c-1.505,0.867-2.932,1.922-4.219,3.209c-7.867,7.867-7.884,20.606-0.036,28.454c1.275,1.275,2.687,2.319,4.178,3.179
		C33.473,54.687,32.44,53.852,31.482,52.895z"/>
	<linearGradient id="SVGID_4_" gradientUnits="userSpaceOnUse" x1="58.7759" y1="55.2348" x2="57.5606" y2="20.4328">
		<stop  offset="0" style="stop-color:#DA1501"/>
		<stop  offset="0.5" style="stop-color:#FD4B00"/>
		<stop  offset="1" style="stop-color:#DA1501"/>
	</linearGradient>
	<path class="st16" d="M56.518,52.895c8.207-8.207,8.19-21.53-0.038-29.758c-0.97-0.97-2.015-1.816-3.11-2.558
		c1.505,0.867,2.932,1.922,4.219,3.209c7.867,7.867,7.884,20.606,0.036,28.454c-1.275,1.275-2.687,2.319-4.178,3.179
		C54.527,54.687,55.56,53.852,56.518,52.895z"/>
</g>
</svg>
