<?xml version="1.0" encoding="utf-8"?>
<!-- Generator: Adobe Illustrator 18.1.1, SVG Export Plug-In . SVG Version: 6.00 Build 0)  -->
<svg version="1.1" id="Layer_1" xmlns="http://www.w3.org/2000/svg" xmlns:xlink="http://www.w3.org/1999/xlink" x="0px" y="0px"
	 width="180px" height="60px" viewBox="0 0 180 60" style="enable-background:new 0 0 180 60;" xml:space="preserve">
<style type="text/css">
	.st0{opacity:0.4;}
	.st1{opacity:0.3;}
	.st2{opacity:0.2;}
	.st3{opacity:0.1;}
	.st4{opacity:0.05;}
	.st5{fill:url(#);}
	.st6{fill:#73420E;}
	.st7{fill:#F4C990;}
	.st8{fill:#AA772D;}
	.st9{fill:#C18C36;}
	.st10{opacity:0.25;}
	.st11{fill:url(#SVGID_1_);}
	.st12{fill:#730000;}
	.st13{fill:url(#SVGID_2_);}
	.st14{opacity:0.05;fill:#993300;}
	.st15{fill:url(#SVGID_3_);}
	.st16{fill:url(#SVGID_4_);}
	.st17{fill:#990000;}
	.st18{fill:url(#SVGID_5_);}
	.st19{fill:url(#SVGID_6_);}
	.st20{fill:url(#SVGID_7_);}
	.st21{fill:url(#SVGID_8_);}
	.st22{fill:url(#SVGID_9_);}
	.st23{fill:#262626;}
	.st24{fill:url(#SVGID_10_);}
	.st25{fill:url(#SVGID_11_);}
	.st26{fill:url(#SVGID_12_);}
	.st27{fill:#333333;}
	.st28{fill:url(#SVGID_13_);}
	.st29{fill:url(#SVGID_14_);}
	.st30{fill:url(#SVGID_15_);}
	.st31{fill:url(#SVGID_16_);}
	.st32{fill:#086700;}
	.st33{fill:url(#SVGID_17_);}
	.st34{fill:url(#SVGID_18_);}
	.st35{fill:url(#SVGID_19_);}
	.st36{fill:url(#SVGID_20_);}
	.st37{fill:url(#SVGID_21_);}
	.st38{fill:url(#SVGID_22_);}
	.st39{fill:url(#SVGID_23_);}
	.st40{fill:url(#SVGID_24_);}
	.st41{fill:url(#SVGID_25_);}
	.st42{fill:url(#SVGID_26_);}
	.st43{fill:url(#SVGID_27_);}
	.st44{fill:url(#SVGID_28_);}
	.st45{fill:url(#SVGID_29_);}
	.st46{fill:url(#SVGID_30_);}
	.st47{fill:url(#SVGID_31_);}
	.st48{fill:url(#SVGID_32_);}
	.st49{fill:url(#SVGID_33_);}
	.st50{fill:url(#SVGID_34_);}
	.st51{fill:url(#SVGID_35_);}
	.st52{fill:url(#SVGID_36_);}
	.st53{fill:url(#SVGID_37_);}
	.st54{fill:url(#SVGID_38_);}
	.st55{fill:url(#SVGID_39_);}
	.st56{fill:url(#SVGID_40_);}
	.st57{fill:url(#SVGID_41_);}
	.st58{fill:url(#SVGID_42_);}
	.st59{fill:url(#SVGID_43_);}
	.st60{opacity:0.45;}
	.st61{fill:url(#SVGID_44_);}
	.st62{fill:url(#SVGID_45_);}
	.st63{fill:url(#SVGID_46_);}
	.st64{fill:url(#SVGID_47_);}
	.st65{opacity:0.35;fill:url(#SVGID_48_);}
	.st66{fill:url(#SVGID_49_);}
	.st67{fill:#FFFFFF;}
	.st68{fill:#666666;}
	.st69{fill:#FFFF00;}
	.st70{fill:#99FF00;}
	.st71{opacity:0.75;}
	.st72{fill:#FF0000;}
	.st73{display:none;fill:url(#SVGID_50_);}
	.st74{display:none;fill:url(#SVGID_51_);}
	.st75{fill:url(#Inside_Line_1_);}
	.st76{clip-path:url(#SVGID_52_);}
	.st77{fill:url(#SVGID_53_);}
	.st78{fill:#999999;}
	.st79{fill:url(#SVGID_54_);}
	.st80{opacity:0.5;fill:#FFFFFF;}
	.st81{fill:url(#SVGID_55_);}
	.st82{fill:url(#SVGID_56_);}
	.st83{opacity:0.15;fill:#FFFFFF;}
	.st84{fill:url(#SVGID_57_);}
	.st85{fill:url(#SVGID_58_);}
	.st86{fill:url(#SVGID_59_);}
	.st87{fill:url(#SVGID_60_);}
	.st88{fill:url(#SVGID_61_);}
	.st89{fill:url(#SVGID_62_);}
	.st90{fill:url(#SVGID_63_);}
	.st91{fill:url(#SVGID_64_);}
	.st92{fill:url(#SVGID_65_);}
	.st93{fill:url(#SVGID_66_);}
	.st94{fill:url(#SVGID_67_);}
	.st95{fill:url(#SVGID_68_);}
	.st96{fill:url(#SVGID_69_);}
	.st97{fill:url(#SVGID_70_);}
	.st98{fill:url(#SVGID_71_);}
	.st99{fill:url(#SVGID_72_);}
	.st100{fill:url(#SVGID_73_);}
	.st101{fill:url(#SVGID_74_);}
	.st102{fill:url(#SVGID_75_);}
	.st103{fill:url(#SVGID_76_);}
	.st104{fill:url(#SVGID_77_);}
	.st105{fill:url(#SVGID_78_);}
	.st106{fill:url(#SVGID_79_);}
	.st107{fill:url(#SVGID_80_);}
	.st108{fill:url(#SVGID_81_);}
	.st109{fill:url(#SVGID_82_);}
	.st110{fill:#00CC00;}
	.st111{fill:url(#SVGID_83_);}
	.st112{fill:url(#SVGID_84_);}
	.st113{fill:url(#SVGID_86_);}
	.st114{fill:url(#SVGID_87_);}
	.st115{fill:url(#SVGID_88_);}
	.st116{fill:url(#SVGID_89_);}
	.st117{fill:#1B1B1B;}
	.st118{fill:url(#SVGID_90_);}
	.st119{fill:url(#SVGID_91_);}
	.st120{fill:url(#SVGID_92_);}
	.st121{fill:#FF9900;}
	.st122{fill:url(#SVGID_93_);}
	.st123{fill:url(#SVGID_94_);}
	.st124{fill:url(#SVGID_95_);}
	.st125{fill:url(#SVGID_96_);}
	.st126{fill:url(#SVGID_97_);}
	.st127{fill:url(#SVGID_98_);}
	.st128{fill:url(#SVGID_99_);}
	.st129{fill:url(#SVGID_100_);}
	.st130{fill:url(#SVGID_101_);}
	.st131{fill:url(#SVGID_102_);}
	.st132{fill:url(#SVGID_103_);}
	.st133{fill:url(#SVGID_104_);}
	.st134{fill:url(#SVGID_105_);}
</style>
<g>
	<path id="Main_7_" class="st10" d="M164.386,6.154H12.614c-5.037,0-9.135,4.098-9.135,9.136v1.004v9.376v5.831V47.71
		c0,5.038,4.098,9.136,9.135,9.136h151.771c5.037,0,9.135-4.098,9.135-9.136V31.501v-5.831v-9.376V15.29
		C173.52,10.253,169.422,6.154,164.386,6.154z"/>
	<path id="Main_6_" d="M167.386,3.154H15.614c-5.037,0-9.135,4.098-9.135,9.136v1.004v9.376v5.831V44.71
		c0,5.038,4.098,9.136,9.135,9.136h151.771c5.037,0,9.135-4.098,9.135-9.136V28.501v-5.831v-9.376V12.29
		C176.52,7.253,172.422,3.154,167.386,3.154z"/>
	<path id="Top_Shine_3_" class="st27" d="M167.386,6.395H15.614c-3.795,0-6.896,3.104-6.896,6.899v15.207h165.563V13.294
		C174.282,9.499,171.181,6.395,167.386,6.395z"/>
	<path id="Highlight_3_" class="st68" d="M15.614,6.395h151.771c3.795,0,6.896,3.104,6.896,6.899V12.29
		c0-3.793-3.101-6.897-6.896-6.897H15.614c-3.795,0-6.896,3.104-6.896,6.897v1.004C8.718,9.499,11.82,6.395,15.614,6.395z"/>
	<g>
		<path d="M71.856,31.716l-1.795-0.218c-0.253-0.029-0.507,0.052-0.695,0.223c-0.401,0.369-0.717,0.884-0.957,1.565h-2.454v-2.887
			h1.926c0.193,0.381,0.404,0.653,0.649,0.84c0.182,0.14,0.409,0.203,0.64,0.172l1.527-0.194c0.436-0.055,0.762-0.426,0.762-0.865
			v-4.315c0-0.35-0.206-0.655-0.509-0.794l0.712-0.086c0.438-0.054,0.767-0.425,0.767-0.866v-4.219c0-0.481-0.391-0.872-0.872-0.872
			H60.5c-0.441,0-0.813,0.329-0.866,0.768l-0.242,2.012c-0.026,0.22,0.031,0.441,0.163,0.62c0.249,0.341,0.633,0.634,1.164,0.89
			v9.924c-0.541,0.257-0.914,0.532-1.155,0.849c-0.138,0.181-0.199,0.407-0.172,0.633l0.242,2.013
			c0.053,0.438,0.425,0.768,0.866,0.768h11.251c0.481,0,0.872-0.391,0.872-0.872v-4.22C72.623,32.141,72.294,31.769,71.856,31.716z
			 M68.469,25.223c-0.209,0.192-0.399,0.453-0.577,0.79h-1.938v-2.427h2.264c0.213,0.604,0.476,1.07,0.794,1.409
			C68.812,25.006,68.62,25.086,68.469,25.223z M57.056,33.333l-1.616-3.076c-0.144-0.27-0.336-0.517-0.579-0.743
			c0.534-0.338,1.014-0.734,1.434-1.188c0.837-0.907,1.261-2.037,1.261-3.356c0-2.152-0.69-3.682-2.055-4.544
			c-1.249-0.79-3.047-1.191-5.51-1.226h-6.183c-0.441,0-0.813,0.329-0.866,0.768L42.7,21.979c-0.026,0.22,0.031,0.441,0.163,0.62
			c0.249,0.341,0.633,0.634,1.164,0.89v9.924c-0.541,0.257-0.914,0.532-1.155,0.849c-0.138,0.181-0.199,0.407-0.172,0.633
			l0.242,2.013c0.053,0.438,0.425,0.768,0.866,0.768h6.547c0.441,0,0.813-0.329,0.866-0.768l0.242-2.013
			c0.027-0.229-0.037-0.46-0.179-0.642c-0.361-0.462-0.996-0.808-2.021-1.092v-2.324h0.593c0.043,0.054,0.119,0.169,0.218,0.396
			l2.789,5.94c0.144,0.306,0.452,0.501,0.79,0.501h4.098c0.438,0,0.809-0.325,0.865-0.76l0.242-1.867
			c0.03-0.237-0.037-0.476-0.188-0.661C58.335,33.97,57.804,33.624,57.056,33.333z M49.263,23.586h0.558
			c0.866,0,1.535,0.134,1.935,0.387c0.114,0.072,0.419,0.265,0.419,1.069c0,0.795-0.288,0.971-0.396,1.037
			c-0.274,0.168-0.845,0.369-2.005,0.369h-0.51V23.586z M103.022,19.967l0.242,2.012c0.029,0.239-0.043,0.48-0.197,0.665
			c-0.265,0.315-0.637,0.591-1.13,0.835v7.261c0,2.336-0.564,4.124-1.678,5.313c-1.129,1.204-2.913,1.814-5.305,1.814
			c-2.406,0-4.15-0.611-5.185-1.819c-1.015-1.186-1.507-2.922-1.507-5.309v-7.255c-0.479-0.235-0.851-0.512-1.127-0.837
			c-0.157-0.185-0.23-0.428-0.201-0.669l0.243-2.012c0.053-0.438,0.425-0.768,0.866-0.768h5.674c0.441,0,0.813,0.329,0.866,0.768
			l0.242,2.012c0.029,0.24-0.043,0.481-0.198,0.666c-0.266,0.315-0.638,0.591-1.13,0.834v7.358c0,1.22,0.229,1.811,0.419,2.091
			c0.206,0.303,0.653,0.456,1.328,0.456c1.025,0,1.286-0.37,1.371-0.491c0.293-0.415,0.448-1.126,0.448-2.056v-7.349
			c-0.53-0.255-0.914-0.548-1.164-0.888c-0.132-0.179-0.19-0.401-0.164-0.622l0.243-2.012c0.053-0.438,0.425-0.768,0.866-0.768h5.31
			C102.597,19.199,102.969,19.528,103.022,19.967z M85.656,27.895c0.845,0.883,1.272,2.15,1.272,3.767
			c0,1.919-0.709,3.461-2.108,4.584c-1.341,1.076-3.014,1.622-4.972,1.622c-1.035,0-2.111-0.134-3.2-0.399
			c-1.123-0.274-2.076-0.671-2.836-1.178c-0.242-0.162-0.388-0.434-0.388-0.726v-0.558c0-0.331,0.059-0.839,0.181-1.553
			c0.128-0.744,0.317-1.372,0.565-1.868c0.147-0.295,0.45-0.481,0.78-0.481h2.304c0.327,0,0.626,0.183,0.775,0.473
			c0.251,0.487,0.417,1.07,0.503,1.77c0.347,0.089,0.734,0.134,1.158,0.134c0.566,0,1.005-0.119,1.338-0.364
			c0.185-0.135,0.372-0.338,0.372-0.824c0-0.297-0.026-0.468-0.048-0.56c0,0.001,0,0.001,0,0.001c-0.003,0-0.045-0.08-0.197-0.224
			c-0.104-0.098-0.318-0.242-0.739-0.372l-2.485-0.724c-2.9-0.831-4.435-2.799-4.435-5.688c0-1.737,0.645-3.151,1.917-4.201
			c1.222-1.009,2.816-1.521,4.738-1.521c1.843,0,3.669,0.419,5.427,1.247c0.307,0.144,0.501,0.451,0.501,0.789v0.558
			c0,0.331-0.058,0.825-0.182,1.553c-0.129,0.754-0.313,1.365-0.565,1.868c-0.147,0.295-0.45,0.481-0.78,0.481H82.25
			c-0.282,0-0.548-0.137-0.711-0.367c-0.292-0.41-0.484-0.969-0.583-1.698c-0.672-0.103-1.436-0.12-1.801,0.183
			c-0.113,0.093-0.229,0.234-0.229,0.587c0,0.317,0.064,0.55,0.19,0.69c0.058,0.064,0.312,0.291,1.21,0.543l2.167,0.632
			C83.802,26.453,84.867,27.066,85.656,27.895z M139.54,31.716l-1.795-0.218c-0.252-0.029-0.507,0.052-0.695,0.223
			c-0.401,0.369-0.717,0.884-0.957,1.565h-2.454v-2.887h1.926c0.193,0.381,0.404,0.653,0.649,0.84
			c0.182,0.14,0.406,0.203,0.64,0.172l1.527-0.194c0.436-0.055,0.762-0.426,0.762-0.865v-4.315c0-0.35-0.206-0.655-0.509-0.794
			l0.712-0.086c0.438-0.054,0.767-0.425,0.767-0.866v-4.219c0-0.481-0.391-0.872-0.872-0.872h-11.057
			c-0.441,0-0.813,0.329-0.866,0.768l-0.242,2.012c-0.026,0.22,0.031,0.441,0.163,0.62c0.249,0.341,0.633,0.634,1.164,0.89v9.924
			c-0.541,0.257-0.914,0.532-1.155,0.849c-0.138,0.181-0.199,0.407-0.172,0.633l0.242,2.013c0.053,0.438,0.425,0.768,0.866,0.768
			h11.251c0.481,0,0.872-0.391,0.872-0.872v-4.22C140.306,32.141,139.977,31.769,139.54,31.716z M136.153,25.223
			c-0.209,0.192-0.4,0.453-0.577,0.79h-1.938v-2.427h2.264c0.213,0.604,0.476,1.07,0.794,1.409
			C136.496,25.006,136.303,25.086,136.153,25.223z M124.809,23.412v9.959c0.498,0.249,0.875,0.537,1.143,0.873
			c0.146,0.183,0.214,0.417,0.186,0.649l-0.242,2.013c-0.053,0.438-0.425,0.768-0.866,0.768H119.5c-0.441,0-0.812-0.329-0.866-0.767
			l-0.242-1.988c-0.028-0.233,0.038-0.468,0.186-0.65c0.268-0.336,0.645-0.624,1.143-0.873v-3.724l-2.521,7.411
			c-0.12,0.354-0.452,0.591-0.826,0.591h-3.225c-0.368,0-0.697-0.231-0.821-0.578l-2.695-7.526v3.903
			c0.479,0.251,0.864,0.561,1.149,0.925c0.144,0.184,0.208,0.418,0.178,0.649l-0.243,1.867c-0.057,0.435-0.427,0.76-0.865,0.76
			h-4.752c-0.438,0-0.809-0.325-0.865-0.76l-0.242-1.867c-0.03-0.231,0.034-0.465,0.177-0.648c0.284-0.364,0.669-0.675,1.149-0.926
			V23.412c-0.541-0.265-0.941-0.582-1.217-0.963c-0.13-0.181-0.187-0.403-0.158-0.624l0.242-1.866
			c0.057-0.435,0.427-0.76,0.865-0.76h5.528c0.367,0,0.695,0.229,0.82,0.575l3.54,9.771c0.094,0.219,0.181,0.438,0.262,0.654
			c0.083-0.228,0.173-0.458,0.271-0.692l3.351-9.721c0.122-0.353,0.453-0.588,0.825-0.588h5.432c0.438,0,0.809,0.325,0.865,0.76
			l0.242,1.866c0.028,0.221-0.028,0.444-0.159,0.625C125.749,22.83,125.348,23.148,124.809,23.412z"/>
		<path class="st67" d="M54.671,31.667c-0.259-0.485-0.792-0.897-1.6-1.236c1.034-0.389,1.895-0.954,2.582-1.697
			c0.687-0.744,1.03-1.665,1.03-2.765c0-1.843-0.55-3.111-1.648-3.807c-1.1-0.695-2.78-1.059-5.044-1.091h-6.183l-0.242,2.012
			c0.226,0.308,0.67,0.582,1.333,0.825v11.081c-0.679,0.259-1.124,0.525-1.333,0.8l0.242,2.013h6.547l0.242-2.013
			c-0.291-0.372-1.026-0.687-2.206-0.945v-3.88h1.575c0.34,0,0.639,0.299,0.897,0.897l2.789,5.94h4.098l0.242-1.867
			c-0.275-0.34-0.792-0.639-1.552-0.897L54.671,31.667z M52.234,27.823c-0.542,0.332-1.362,0.497-2.461,0.497h-1.382v-4.606h1.43
			c1.051,0,1.852,0.174,2.401,0.521c0.549,0.348,0.824,0.949,0.824,1.807C53.047,26.898,52.775,27.492,52.234,27.823z
			 M69.956,33.364l1.795,0.218v4.22H60.5l-0.242-2.013c0.209-0.274,0.654-0.541,1.333-0.8V23.908
			c-0.663-0.243-1.107-0.518-1.333-0.825l0.242-2.012h11.057v4.219l-1.794,0.218c-0.372-0.323-0.671-0.921-0.897-1.794h-3.782v4.171
			h3.37c0.193-0.485,0.396-0.825,0.606-1.019l1.527,0.17v4.315l-1.527,0.194c-0.211-0.161-0.413-0.501-0.606-1.019h-3.37v4.631
			h3.977C69.268,34.318,69.568,33.72,69.956,33.364z M85.025,29.497c0.688,0.719,1.031,1.774,1.031,3.164
			c0,1.648-0.595,2.95-1.782,3.903c-1.188,0.954-2.664,1.431-4.426,1.431c-0.97,0-1.968-0.125-2.994-0.375
			c-1.026-0.251-1.879-0.603-2.558-1.056c0-0.097,0-0.282,0-0.558c0-0.274,0.056-0.743,0.169-1.406
			c0.113-0.662,0.275-1.204,0.485-1.624h2.304c0.258,0.501,0.412,1.172,0.46,2.013c0.566,0.242,1.225,0.363,1.977,0.363
			s1.37-0.178,1.854-0.533c0.485-0.355,0.728-0.865,0.728-1.527c0-0.308-0.023-0.562-0.072-0.765
			c-0.049-0.201-0.198-0.42-0.448-0.654c-0.251-0.234-0.61-0.425-1.079-0.569l-2.498-0.728c-2.538-0.728-3.807-2.344-3.807-4.85
			c0-1.471,0.533-2.647,1.601-3.528c1.066-0.881,2.461-1.321,4.183-1.321s3.406,0.388,5.056,1.164c0,0.097,0,0.283,0,0.558
			s-0.057,0.743-0.17,1.406s-0.275,1.204-0.485,1.624H82.25c-0.275-0.388-0.437-1.026-0.485-1.915
			c-0.55-0.146-1.124-0.219-1.722-0.219c-0.599,0-1.079,0.15-1.442,0.449c-0.364,0.299-0.546,0.72-0.546,1.261
			c0,0.542,0.138,0.966,0.412,1.272c0.274,0.308,0.816,0.574,1.625,0.801l2.158,0.63C83.413,28.248,84.339,28.777,85.025,29.497z
			 M102.156,21.071l0.242,2.012c-0.258,0.308-0.703,0.582-1.333,0.825v7.831c0,2.118-0.481,3.69-1.442,4.717
			c-0.962,1.026-2.519,1.539-4.668,1.539c-2.15,0-3.657-0.505-4.522-1.515c-0.864-1.011-1.297-2.591-1.297-4.741v-7.831
			c-0.614-0.227-1.059-0.501-1.334-0.825l0.243-2.012h5.674l0.242,2.012c-0.259,0.308-0.703,0.582-1.334,0.825v7.929
			c0,1.164,0.19,2.024,0.57,2.582s1.062,0.837,2.049,0.837c0.985,0,1.681-0.287,2.085-0.861c0.404-0.573,0.606-1.426,0.606-2.558
			v-7.929c-0.663-0.243-1.107-0.518-1.334-0.825l0.243-2.012H102.156z M123.937,23.835V34.94c0.631,0.242,1.075,0.525,1.334,0.849
			l-0.242,2.013H119.5l-0.242-1.988c0.259-0.323,0.703-0.606,1.334-0.849V28.66c0-0.646,0.057-1.648,0.17-3.007l0.048-0.582
			l-0.242-0.023c-0.372,1.374-0.695,2.465-0.97,3.272l-3.226,9.481h-3.225l-3.395-9.481c-0.308-0.727-0.582-1.632-0.824-2.715
			l-0.146-0.558l-0.242,0.023c0.146,1.439,0.218,2.636,0.218,3.589v6.377c0.598,0.227,1.043,0.525,1.334,0.897l-0.243,1.867h-4.752
			l-0.242-1.867c0.29-0.372,0.735-0.671,1.333-0.897V23.835c-0.663-0.242-1.124-0.541-1.382-0.897l0.242-1.866h5.528l3.54,9.771
			c0.453,1.066,0.743,2.045,0.873,2.934l0.073,0.412h0.339c0.064-0.985,0.355-2.101,0.873-3.346l3.37-9.771h5.432l0.242,1.866
			C125.06,23.294,124.6,23.593,123.937,23.835z M139.434,33.582v4.22h-11.251l-0.242-2.013c0.209-0.274,0.654-0.541,1.333-0.8
			V23.908c-0.663-0.243-1.107-0.518-1.333-0.825l0.242-2.012h11.057v4.219l-1.794,0.218c-0.372-0.323-0.671-0.921-0.897-1.794
			h-3.782v4.171h3.37c0.193-0.485,0.396-0.825,0.606-1.019l1.527,0.17v4.315l-1.527,0.194c-0.211-0.161-0.413-0.501-0.606-1.019
			h-3.37v4.631h3.977c0.209-0.84,0.509-1.438,0.896-1.794L139.434,33.582z"/>
	</g>
</g>
</svg>
