<?xml version="1.0" encoding="utf-8"?>
<!-- Generator: Adobe Illustrator 18.1.1, SVG Export Plug-In . SVG Version: 6.00 Build 0)  -->
<svg version="1.1" id="Layer_1" xmlns="http://www.w3.org/2000/svg" xmlns:xlink="http://www.w3.org/1999/xlink" x="0px" y="0px"
	 width="55px" height="55px" viewBox="0 0 55 55" style="enable-background:new 0 0 55 55;" xml:space="preserve">
<style type="text/css">
	.st0{opacity:0.4;}
	.st1{opacity:0.3;}
	.st2{opacity:0.2;}
	.st3{opacity:0.1;}
	.st4{opacity:0.05;}
	.st5{fill:url(#);}
	.st6{fill:#73420E;}
	.st7{fill:#F4C990;}
	.st8{fill:#AA772D;}
	.st9{fill:#C18C36;}
	.st10{opacity:0.25;}
	.st11{fill:url(#SVGID_1_);}
	.st12{fill:#730000;}
	.st13{fill:url(#SVGID_2_);}
	.st14{opacity:0.05;fill:#993300;}
	.st15{fill:url(#SVGID_3_);}
	.st16{fill:url(#SVGID_4_);}
	.st17{fill:#990000;}
	.st18{fill:url(#SVGID_5_);}
	.st19{fill:url(#SVGID_6_);}
	.st20{fill:url(#SVGID_7_);}
	.st21{fill:url(#SVGID_8_);}
	.st22{fill:url(#SVGID_9_);}
	.st23{fill:#262626;}
	.st24{fill:url(#SVGID_10_);}
	.st25{fill:url(#SVGID_11_);}
	.st26{fill:url(#SVGID_12_);}
	.st27{fill:#333333;}
	.st28{fill:url(#SVGID_13_);}
	.st29{fill:url(#SVGID_14_);}
	.st30{fill:url(#SVGID_15_);}
	.st31{fill:url(#SVGID_16_);}
	.st32{fill:#086700;}
	.st33{fill:url(#SVGID_17_);}
	.st34{fill:url(#SVGID_18_);}
	.st35{fill:url(#SVGID_19_);}
	.st36{fill:url(#SVGID_20_);}
	.st37{fill:url(#SVGID_21_);}
	.st38{fill:url(#SVGID_22_);}
	.st39{fill:url(#SVGID_23_);}
	.st40{fill:url(#SVGID_24_);}
	.st41{fill:url(#SVGID_25_);}
	.st42{fill:url(#SVGID_26_);}
	.st43{fill:url(#SVGID_27_);}
	.st44{fill:url(#SVGID_28_);}
	.st45{fill:url(#SVGID_29_);}
	.st46{fill:url(#SVGID_30_);}
	.st47{fill:url(#SVGID_31_);}
	.st48{fill:url(#SVGID_32_);}
	.st49{fill:url(#SVGID_33_);}
	.st50{fill:url(#SVGID_34_);}
	.st51{fill:url(#SVGID_35_);}
	.st52{fill:url(#SVGID_36_);}
	.st53{fill:url(#SVGID_37_);}
	.st54{fill:url(#SVGID_38_);}
	.st55{fill:url(#SVGID_39_);}
	.st56{fill:url(#SVGID_40_);}
	.st57{fill:url(#SVGID_41_);}
	.st58{fill:url(#SVGID_42_);}
	.st59{fill:url(#SVGID_43_);}
	.st60{opacity:0.45;}
	.st61{fill:url(#SVGID_44_);}
	.st62{fill:url(#SVGID_45_);}
	.st63{fill:url(#SVGID_46_);}
	.st64{fill:url(#SVGID_47_);}
	.st65{opacity:0.35;fill:url(#SVGID_48_);}
	.st66{fill:url(#SVGID_49_);}
	.st67{fill:#FFFFFF;}
	.st68{fill:#666666;}
	.st69{fill:#FFFF00;}
	.st70{fill:#99FF00;}
	.st71{opacity:0.75;}
	.st72{fill:#FF0000;}
	.st73{display:none;fill:url(#SVGID_50_);}
	.st74{display:none;fill:url(#SVGID_51_);}
	.st75{fill:url(#Inside_Line_1_);}
	.st76{clip-path:url(#SVGID_52_);}
	.st77{fill:url(#SVGID_53_);}
	.st78{fill:#999999;}
	.st79{fill:url(#SVGID_54_);}
	.st80{opacity:0.5;fill:#FFFFFF;}
	.st81{fill:url(#SVGID_55_);}
	.st82{fill:url(#SVGID_56_);}
	.st83{opacity:0.15;fill:#FFFFFF;}
	.st84{fill:url(#SVGID_57_);}
	.st85{fill:url(#SVGID_58_);}
	.st86{fill:url(#SVGID_59_);}
	.st87{fill:url(#SVGID_60_);}
	.st88{fill:url(#SVGID_61_);}
	.st89{fill:url(#SVGID_62_);}
	.st90{fill:url(#SVGID_63_);}
	.st91{fill:url(#SVGID_64_);}
	.st92{fill:url(#SVGID_65_);}
	.st93{fill:url(#SVGID_66_);}
	.st94{fill:url(#SVGID_67_);}
	.st95{fill:url(#SVGID_68_);}
	.st96{fill:url(#SVGID_69_);}
	.st97{fill:url(#SVGID_70_);}
	.st98{fill:url(#SVGID_71_);}
	.st99{fill:url(#SVGID_72_);}
	.st100{fill:url(#SVGID_73_);}
	.st101{fill:url(#SVGID_74_);}
	.st102{fill:url(#SVGID_75_);}
	.st103{fill:url(#SVGID_76_);}
	.st104{fill:url(#SVGID_77_);}
	.st105{fill:url(#SVGID_78_);}
	.st106{fill:url(#SVGID_79_);}
	.st107{fill:url(#SVGID_80_);}
	.st108{fill:url(#SVGID_81_);}
	.st109{fill:url(#SVGID_82_);}
	.st110{fill:#00CC00;}
	.st111{fill:url(#SVGID_83_);}
	.st112{fill:url(#SVGID_84_);}
	.st113{fill:url(#SVGID_86_);}
	.st114{fill:url(#SVGID_87_);}
	.st115{fill:url(#SVGID_88_);}
	.st116{fill:url(#SVGID_89_);}
	.st117{fill:#1B1B1B;}
	.st118{fill:url(#SVGID_90_);}
	.st119{fill:url(#SVGID_91_);}
	.st120{fill:url(#SVGID_92_);}
	.st121{fill:#FF9900;}
	.st122{fill:url(#SVGID_93_);}
	.st123{fill:url(#SVGID_94_);}
	.st124{fill:url(#SVGID_95_);}
	.st125{fill:url(#SVGID_96_);}
	.st126{fill:url(#SVGID_97_);}
	.st127{fill:url(#SVGID_98_);}
	.st128{fill:url(#SVGID_99_);}
	.st129{fill:url(#SVGID_100_);}
	.st130{fill:url(#SVGID_101_);}
	.st131{fill:url(#SVGID_102_);}
	.st132{fill:url(#SVGID_103_);}
	.st133{fill:url(#SVGID_104_);}
	.st134{fill:url(#SVGID_105_);}
</style>
<g>
	<path class="st10" d="M40.674,6.268H11.326c-4.442,0-8.056,3.614-8.056,8.057v0.909v8.488v5.278v14.673
		c0,4.443,3.614,8.057,8.056,8.057h29.349c4.442,0,8.056-3.615,8.056-8.057V29.001v-5.278v-8.488v-0.909
		C48.73,9.883,45.117,6.268,40.674,6.268z"/>
	<path d="M43.674,3.268H14.326c-4.442,0-8.056,3.614-8.056,8.057v0.909v8.488v5.278v14.673c0,4.443,3.614,8.057,8.056,8.057h29.349
		c4.442,0,8.056-3.615,8.056-8.057V26.001v-5.278v-8.488v-0.909C51.73,6.883,48.117,3.268,43.674,3.268z"/>
	<path class="st27" d="M43.674,5.989H14.326c-3.435,0-6.243,2.81-6.243,6.246v13.767h41.835V12.235
		C49.917,8.799,47.11,5.989,43.674,5.989z"/>
	<path class="st68" d="M14.326,5.989h29.349c3.435,0,6.243,2.81,6.243,6.246v-0.909c0-3.434-2.807-6.244-6.243-6.244H14.326
		c-3.435,0-6.243,2.81-6.243,6.244v0.909C8.083,8.799,10.89,5.989,14.326,5.989z"/>
	<g>
		<path d="M16.392,20.674c-1.764,0-3.198-1.398-3.198-3.117c0-1.72,1.435-3.119,3.198-3.119s3.198,1.399,3.198,3.119
			C19.59,19.276,18.156,20.674,16.392,20.674z M16.392,16.182c-0.802,0-1.454,0.617-1.454,1.375c0,0.757,0.652,1.373,1.454,1.373
			s1.454-0.616,1.454-1.373C17.846,16.799,17.194,16.182,16.392,16.182z M16.392,29.054c-1.764,0-3.198-1.398-3.198-3.118
			s1.435-3.118,3.198-3.118s3.198,1.398,3.198,3.118S18.156,29.054,16.392,29.054z M16.392,24.562c-0.802,0-1.454,0.616-1.454,1.374
			s0.652,1.374,1.454,1.374s1.454-0.616,1.454-1.374S17.194,24.562,16.392,24.562z M16.392,37.434c-1.764,0-3.198-1.398-3.198-3.118
			s1.435-3.118,3.198-3.118s3.198,1.398,3.198,3.118S18.156,37.434,16.392,37.434z M16.392,32.942c-0.802,0-1.454,0.616-1.454,1.374
			s0.652,1.374,1.454,1.374s1.454-0.616,1.454-1.374S17.194,32.942,16.392,32.942z M42.815,36.911H22.96
			c-1.099,0-1.991-0.808-1.991-1.802v-1.587c0-0.994,0.893-1.802,1.991-1.802h19.854c1.099,0,1.991,0.808,1.991,1.802v1.587
			C44.806,36.103,43.914,36.911,42.815,36.911z M22.716,35.108c0.018,0,0.103,0.059,0.244,0.059h19.854
			c0.152,0,0.239-0.067,0.254-0.092l-0.007-1.553c-0.012,0.021-0.096-0.058-0.247-0.058H22.96c-0.152,0-0.239,0.067-0.254,0.092
			l0.007,1.553C22.714,35.108,22.715,35.108,22.716,35.108z M42.815,20.151H22.96c-1.099,0-1.991-0.808-1.991-1.801v-1.588
			c0-0.993,0.893-1.801,1.991-1.801h19.854c1.099,0,1.991,0.808,1.991,1.801v1.588C44.806,19.343,43.914,20.151,42.815,20.151z
			 M22.716,18.349c0.018,0,0.104,0.058,0.244,0.058h19.854c0.152,0,0.239-0.067,0.254-0.092l-0.007-1.553
			c-0.021,0.015-0.098-0.057-0.247-0.057H22.96c-0.152,0-0.239,0.067-0.254,0.092l0.007,1.553
			C22.714,18.349,22.715,18.349,22.716,18.349z M42.815,28.531H22.96c-1.099,0-1.991-0.808-1.991-1.801v-1.588
			c0-0.993,0.893-1.801,1.991-1.801h19.854c1.099,0,1.991,0.808,1.991,1.801v1.588C44.806,27.723,43.914,28.531,42.815,28.531z
			 M22.716,26.729c0.019,0,0.104,0.058,0.244,0.058h19.854c0.152,0,0.239-0.067,0.254-0.092l-0.007-1.553
			c-0.021,0.013-0.098-0.057-0.247-0.057H22.96c-0.152,0-0.239,0.067-0.254,0.091l0.007,1.554
			C22.714,26.729,22.715,26.729,22.716,26.729z"/>
		<path class="st67" d="M18.718,18.557c0,1.24-1.042,2.245-2.326,2.245s-2.326-1.006-2.326-2.245c0-1.241,1.042-2.247,2.326-2.247
			S18.718,17.316,18.718,18.557z M16.392,24.69c-1.285,0-2.326,1.006-2.326,2.246c0,1.24,1.042,2.246,2.326,2.246
			s2.326-1.006,2.326-2.246C18.718,25.695,17.677,24.69,16.392,24.69z M16.392,33.069c-1.285,0-2.326,1.006-2.326,2.246
			c0,1.24,1.042,2.246,2.326,2.246s2.326-1.007,2.326-2.246C18.718,34.075,17.677,33.069,16.392,33.069z M43.934,17.763
			c0-0.514-0.501-0.929-1.119-0.929H22.961c-0.618,0-1.119,0.415-1.119,0.929v1.587c0,0.514,0.501,0.929,1.119,0.929h19.854
			c0.619,0,1.119-0.415,1.119-0.929V17.763z M43.934,26.142c0-0.514-0.501-0.928-1.119-0.928H22.961
			c-0.618,0-1.119,0.415-1.119,0.928v1.588c0,0.513,0.501,0.928,1.119,0.928h19.854c0.619,0,1.119-0.415,1.119-0.928V26.142z
			 M43.934,34.522c0-0.514-0.501-0.929-1.119-0.929H22.961c-0.618,0-1.119,0.415-1.119,0.929v1.587c0,0.514,0.501,0.929,1.119,0.929
			h19.854c0.619,0,1.119-0.415,1.119-0.929V34.522z"/>
	</g>
</g>
</svg>
