<?xml version="1.0" encoding="utf-8"?>
<!-- Generator: Adobe Illustrator 18.1.1, SVG Export Plug-In . SVG Version: 6.00 Build 0)  -->
<svg version="1.1" id="Layer_1" xmlns="http://www.w3.org/2000/svg" xmlns:xlink="http://www.w3.org/1999/xlink" x="0px" y="0px"
	 width="180px" height="60px" viewBox="0 0 180 60" style="enable-background:new 0 0 180 60;" xml:space="preserve">
<style type="text/css">
	.st0{opacity:0.4;}
	.st1{opacity:0.3;}
	.st2{opacity:0.2;}
	.st3{opacity:0.1;}
	.st4{opacity:0.05;}
	.st5{fill:url(#);}
	.st6{fill:#73420E;}
	.st7{fill:#F4C990;}
	.st8{fill:#AA772D;}
	.st9{fill:#C18C36;}
	.st10{opacity:0.25;}
	.st11{fill:url(#SVGID_1_);}
	.st12{fill:#730000;}
	.st13{fill:url(#SVGID_2_);}
	.st14{opacity:0.05;fill:#993300;}
	.st15{fill:url(#SVGID_3_);}
	.st16{fill:url(#SVGID_4_);}
	.st17{fill:#990000;}
	.st18{fill:url(#SVGID_5_);}
	.st19{fill:url(#SVGID_6_);}
	.st20{fill:url(#SVGID_7_);}
	.st21{fill:url(#SVGID_8_);}
	.st22{fill:url(#SVGID_9_);}
	.st23{fill:#262626;}
	.st24{fill:url(#SVGID_10_);}
	.st25{fill:url(#SVGID_11_);}
	.st26{fill:url(#SVGID_12_);}
	.st27{fill:#333333;}
	.st28{fill:url(#SVGID_13_);}
	.st29{fill:url(#SVGID_14_);}
	.st30{fill:url(#SVGID_15_);}
	.st31{fill:url(#SVGID_16_);}
	.st32{fill:#086700;}
	.st33{fill:url(#SVGID_17_);}
	.st34{fill:url(#SVGID_18_);}
	.st35{fill:url(#SVGID_19_);}
	.st36{fill:url(#SVGID_20_);}
	.st37{fill:url(#SVGID_21_);}
	.st38{fill:url(#SVGID_22_);}
	.st39{fill:url(#SVGID_23_);}
	.st40{fill:url(#SVGID_24_);}
	.st41{fill:url(#SVGID_25_);}
	.st42{fill:url(#SVGID_26_);}
	.st43{fill:url(#SVGID_27_);}
	.st44{fill:url(#SVGID_28_);}
	.st45{fill:url(#SVGID_29_);}
	.st46{fill:url(#SVGID_30_);}
	.st47{fill:url(#SVGID_31_);}
	.st48{fill:url(#SVGID_32_);}
	.st49{fill:url(#SVGID_33_);}
	.st50{fill:url(#SVGID_34_);}
	.st51{fill:url(#SVGID_35_);}
	.st52{fill:url(#SVGID_36_);}
	.st53{fill:url(#SVGID_37_);}
	.st54{fill:url(#SVGID_38_);}
	.st55{fill:url(#SVGID_39_);}
	.st56{fill:url(#SVGID_40_);}
	.st57{fill:url(#SVGID_41_);}
	.st58{fill:url(#SVGID_42_);}
	.st59{fill:url(#SVGID_43_);}
	.st60{opacity:0.45;}
	.st61{fill:url(#SVGID_44_);}
	.st62{fill:url(#SVGID_45_);}
	.st63{fill:url(#SVGID_46_);}
	.st64{fill:url(#SVGID_47_);}
	.st65{opacity:0.35;fill:url(#SVGID_48_);}
	.st66{fill:url(#SVGID_49_);}
	.st67{fill:#FFFFFF;}
	.st68{fill:#666666;}
	.st69{fill:#FFFF00;}
	.st70{fill:#99FF00;}
	.st71{opacity:0.75;}
	.st72{fill:#FF0000;}
	.st73{display:none;fill:url(#SVGID_50_);}
	.st74{display:none;fill:url(#SVGID_51_);}
	.st75{fill:url(#Inside_Line_1_);}
	.st76{clip-path:url(#SVGID_52_);}
	.st77{fill:url(#SVGID_53_);}
	.st78{fill:#999999;}
	.st79{fill:url(#SVGID_54_);}
	.st80{opacity:0.5;fill:#FFFFFF;}
	.st81{fill:url(#SVGID_55_);}
	.st82{fill:url(#SVGID_56_);}
	.st83{opacity:0.15;fill:#FFFFFF;}
	.st84{fill:url(#SVGID_57_);}
	.st85{fill:url(#SVGID_58_);}
	.st86{fill:url(#SVGID_59_);}
	.st87{fill:url(#SVGID_60_);}
	.st88{fill:url(#SVGID_61_);}
	.st89{fill:url(#SVGID_62_);}
	.st90{fill:url(#SVGID_63_);}
	.st91{fill:url(#SVGID_64_);}
	.st92{fill:url(#SVGID_65_);}
	.st93{fill:url(#SVGID_66_);}
	.st94{fill:url(#SVGID_67_);}
	.st95{fill:url(#SVGID_68_);}
	.st96{fill:url(#SVGID_69_);}
	.st97{fill:url(#SVGID_70_);}
	.st98{fill:url(#SVGID_71_);}
	.st99{fill:url(#SVGID_72_);}
	.st100{fill:url(#SVGID_73_);}
	.st101{fill:url(#SVGID_74_);}
	.st102{fill:url(#SVGID_75_);}
	.st103{fill:url(#SVGID_76_);}
	.st104{fill:url(#SVGID_77_);}
	.st105{fill:url(#SVGID_78_);}
	.st106{fill:url(#SVGID_79_);}
	.st107{fill:url(#SVGID_80_);}
	.st108{fill:url(#SVGID_81_);}
	.st109{fill:url(#SVGID_82_);}
	.st110{fill:#00CC00;}
	.st111{fill:url(#SVGID_83_);}
	.st112{fill:url(#SVGID_84_);}
	.st113{fill:url(#SVGID_86_);}
	.st114{fill:url(#SVGID_87_);}
	.st115{fill:url(#SVGID_88_);}
	.st116{fill:url(#SVGID_89_);}
	.st117{fill:#1B1B1B;}
	.st118{fill:url(#SVGID_90_);}
	.st119{fill:url(#SVGID_91_);}
	.st120{fill:url(#SVGID_92_);}
	.st121{fill:#FF9900;}
	.st122{fill:url(#SVGID_93_);}
	.st123{fill:url(#SVGID_94_);}
	.st124{fill:url(#SVGID_95_);}
	.st125{fill:url(#SVGID_96_);}
	.st126{fill:url(#SVGID_97_);}
	.st127{fill:url(#SVGID_98_);}
	.st128{fill:url(#SVGID_99_);}
	.st129{fill:url(#SVGID_100_);}
	.st130{fill:url(#SVGID_101_);}
	.st131{fill:url(#SVGID_102_);}
	.st132{fill:url(#SVGID_103_);}
	.st133{fill:url(#SVGID_104_);}
	.st134{fill:url(#SVGID_105_);}
</style>
<g>
	<path id="Main_9_" class="st10" d="M164.386,6.154H12.614c-5.037,0-9.135,4.098-9.135,9.136v1.004v9.376v5.831V47.71
		c0,5.038,4.098,9.136,9.135,9.136h151.771c5.037,0,9.135-4.098,9.135-9.136V31.501v-5.831v-9.376V15.29
		C173.52,10.253,169.422,6.154,164.386,6.154z"/>
	<path id="Main_8_" d="M167.386,3.154H15.614c-5.037,0-9.135,4.098-9.135,9.136v1.004v9.376v5.831V44.71
		c0,5.038,4.098,9.136,9.135,9.136h151.771c5.037,0,9.135-4.098,9.135-9.136V28.501v-5.831v-9.376V12.29
		C176.52,7.253,172.422,3.154,167.386,3.154z"/>
	<path id="Top_Shine_4_" class="st27" d="M167.386,6.395H15.614c-3.795,0-6.896,3.104-6.896,6.899v15.207h165.563V13.294
		C174.282,9.499,171.181,6.395,167.386,6.395z"/>
	<path id="Highlight_4_" class="st68" d="M15.614,6.395h151.771c3.795,0,6.896,3.104,6.896,6.899V12.29
		c0-3.793-3.101-6.897-6.896-6.897H15.614c-3.795,0-6.896,3.104-6.896,6.897v1.004C8.718,9.499,11.82,6.395,15.614,6.395z"/>
	<g>
		<g>
			<path d="M62.506,26.071l-2.169-0.634c-0.897-0.25-1.151-0.477-1.209-0.541c-0.126-0.141-0.19-0.373-0.19-0.691
				c0-0.353,0.115-0.494,0.229-0.587c0.366-0.301,1.129-0.283,1.801-0.182c0.099,0.729,0.291,1.288,0.583,1.698
				c0.163,0.23,0.429,0.367,0.711,0.367h2.303c0.33,0,0.633-0.187,0.78-0.481c0.251-0.503,0.437-1.114,0.565-1.868
				c0.124-0.728,0.182-1.222,0.182-1.554v-0.558c0-0.338-0.195-0.646-0.501-0.79c-1.76-0.827-3.586-1.246-5.427-1.246
				c-1.921,0-3.516,0.512-4.738,1.521c-1.272,1.05-1.917,2.463-1.917,4.2c0,2.889,1.534,4.855,4.435,5.688l2.483,0.723
				c0.423,0.132,0.638,0.276,0.74,0.372c0.155,0.146,0.196,0.226,0.198,0.226c0.021,0.091,0.048,0.261,0.048,0.558
				c0,0.486-0.188,0.689-0.373,0.824c-0.332,0.245-0.77,0.364-1.337,0.364c-0.424,0-0.812-0.045-1.159-0.134
				c-0.087-0.697-0.255-1.29-0.502-1.77c-0.149-0.29-0.448-0.473-0.775-0.473h-2.304c-0.331,0-0.633,0.187-0.78,0.482
				c-0.252,0.504-0.437,1.115-0.565,1.868c-0.122,0.714-0.181,1.222-0.181,1.553v0.558c0,0.292,0.146,0.563,0.388,0.726
				c0.761,0.508,1.715,0.903,2.836,1.177c1.092,0.266,2.168,0.4,3.2,0.4c1.958,0,3.631-0.546,4.973-1.623
				c1.398-1.123,2.107-2.666,2.107-4.584c0-1.615-0.428-2.883-1.272-3.767C64.877,27.067,63.813,26.454,62.506,26.071z"/>
			<path d="M82.305,23.562v-3.467c0-0.481-0.391-0.872-0.872-0.872H67.854c-0.481,0-0.872,0.391-0.872,0.872v3.467
				c0,0.439,0.326,0.811,0.762,0.865l1.527,0.194c0.234,0.029,0.459-0.034,0.642-0.173c0.243-0.187,0.454-0.459,0.646-0.839h1.466
				v9.802c-0.541,0.257-0.914,0.532-1.155,0.849c-0.138,0.181-0.199,0.407-0.172,0.633l0.242,2.013
				c0.053,0.438,0.425,0.768,0.866,0.768h5.674c0.441,0,0.813-0.329,0.866-0.768l0.242-2.013c0.029-0.247-0.048-0.495-0.212-0.682
				c-0.251-0.285-0.618-0.546-1.115-0.79V23.61h1.466c0.193,0.382,0.404,0.654,0.648,0.84c0.182,0.14,0.406,0.203,0.64,0.172
				l1.527-0.194C81.979,24.373,82.305,24.001,82.305,23.562z"/>
			<path d="M128.692,19.223h-13.578c-0.481,0-0.872,0.391-0.872,0.872v3.467c0,0.439,0.326,0.811,0.762,0.865l1.527,0.194
				c0.231,0.029,0.459-0.034,0.642-0.173c0.243-0.187,0.454-0.459,0.646-0.839h1.466v9.802c-0.541,0.257-0.914,0.532-1.155,0.849
				c-0.138,0.181-0.199,0.407-0.172,0.633l0.242,2.013c0.053,0.438,0.425,0.768,0.866,0.768h5.674c0.441,0,0.813-0.329,0.866-0.768
				l0.242-2.013c0.029-0.247-0.048-0.495-0.212-0.682c-0.251-0.285-0.618-0.546-1.115-0.79V23.61h1.466
				c0.193,0.382,0.404,0.654,0.648,0.84c0.182,0.14,0.409,0.203,0.64,0.172l1.527-0.194c0.436-0.055,0.762-0.426,0.762-0.865v-3.467
				C129.564,19.614,129.174,19.223,128.692,19.223z"/>
			<path d="M112.989,33.333l-1.616-3.078c-0.144-0.269-0.336-0.515-0.579-0.741c0.534-0.338,1.014-0.735,1.433-1.189
				c0.838-0.906,1.262-2.035,1.262-3.355c0-2.153-0.69-3.683-2.055-4.545c-1.251-0.79-3.049-1.191-5.51-1.226h-6.183
				c-0.441,0-0.813,0.329-0.866,0.768l-0.242,2.013c-0.026,0.22,0.031,0.441,0.163,0.62c0.25,0.341,0.633,0.635,1.164,0.889v9.924
				c-0.541,0.257-0.914,0.532-1.155,0.849c-0.138,0.181-0.199,0.407-0.172,0.633l0.242,2.013c0.053,0.438,0.425,0.768,0.866,0.768
				h6.547c0.441,0,0.813-0.329,0.866-0.768l0.242-2.013c0.027-0.229-0.037-0.461-0.18-0.643c-0.361-0.461-0.996-0.807-2.021-1.091
				v-2.324h0.592c0.043,0.054,0.12,0.169,0.219,0.396l2.789,5.94c0.144,0.306,0.452,0.501,0.79,0.501h4.098
				c0.438,0,0.809-0.325,0.865-0.76l0.242-1.867c0.031-0.237-0.037-0.477-0.188-0.662C114.267,33.97,113.736,33.625,112.989,33.333z
				 M105.196,23.585h0.558c0.865,0,1.534,0.134,1.935,0.387c0.114,0.072,0.419,0.265,0.419,1.069c0,0.796-0.288,0.972-0.396,1.038
				c-0.275,0.168-0.848,0.369-2.006,0.369h-0.51V23.585z"/>
			<path d="M96.555,33.274l-4.693-13.608c-0.122-0.353-0.453-0.588-0.825-0.588h-3.321c-0.375,0-0.708,0.239-0.827,0.596
				L82.369,33.18c-0.744,0.278-1.276,0.631-1.621,1.07c-0.143,0.182-0.207,0.413-0.18,0.643l0.242,2.013
				c0.053,0.438,0.425,0.768,0.866,0.768h5.528c0.441,0,0.813-0.329,0.866-0.768l0.243-2.013c0.03-0.25-0.049-0.5-0.217-0.688
				c-0.227-0.252-0.51-0.477-0.855-0.677l0.194-0.632h3.57l0.226,0.701c-0.351,0.2-0.61,0.419-0.797,0.667
				c-0.135,0.18-0.195,0.404-0.168,0.628l0.242,2.013c0.053,0.438,0.425,0.768,0.866,0.768h5.674c0.441,0,0.813-0.329,0.866-0.768
				l0.242-2.013c0.029-0.241-0.044-0.484-0.201-0.669C97.643,33.853,97.182,33.541,96.555,33.274z M89.211,27.175l0.543,1.747
				h-1.093L89.211,27.175z"/>
		</g>
		<path class="st67" d="M65.036,29.497c0.688,0.72,1.031,1.774,1.031,3.164c0,1.649-0.595,2.95-1.782,3.904
			c-1.188,0.954-2.664,1.431-4.426,1.431c-0.97,0-1.968-0.126-2.994-0.376s-1.879-0.602-2.558-1.055c0-0.097,0-0.282,0-0.558
			c0-0.274,0.056-0.743,0.169-1.406s0.275-1.204,0.485-1.625h2.304c0.258,0.501,0.412,1.173,0.46,2.013
			c0.566,0.242,1.225,0.363,1.977,0.363s1.37-0.177,1.854-0.533c0.485-0.355,0.728-0.864,0.728-1.527
			c0-0.307-0.023-0.562-0.072-0.764s-0.198-0.42-0.448-0.655c-0.251-0.233-0.61-0.424-1.079-0.569l-2.498-0.728
			c-2.538-0.728-3.807-2.344-3.807-4.85c0-1.471,0.533-2.646,1.601-3.527c1.066-0.881,2.461-1.322,4.183-1.322
			s3.406,0.389,5.056,1.164c0,0.098,0,0.283,0,0.558c0,0.275-0.057,0.744-0.17,1.406c-0.113,0.663-0.275,1.205-0.485,1.625h-2.303
			c-0.275-0.388-0.437-1.026-0.485-1.916c-0.55-0.146-1.124-0.218-1.722-0.218c-0.599,0-1.079,0.149-1.442,0.448
			c-0.364,0.3-0.546,0.72-0.546,1.261c0,0.542,0.138,0.967,0.412,1.273c0.274,0.308,0.816,0.574,1.625,0.8l2.158,0.631
			C63.424,28.249,64.35,28.778,65.036,29.497z M67.854,24.562l1.527,0.194c0.21-0.161,0.412-0.501,0.606-1.019h2.909v11.251
			c-0.679,0.259-1.124,0.525-1.333,0.8l0.242,2.013h5.674l0.242-2.013c-0.242-0.274-0.688-0.541-1.333-0.8V23.738h2.909
			c0.194,0.518,0.396,0.857,0.606,1.019l1.527-0.194v-3.467H67.854V24.562z M95.861,34.94c0.68,0.243,1.156,0.525,1.431,0.849
			l-0.242,2.013h-5.674l-0.242-2.013c0.193-0.258,0.582-0.5,1.164-0.727l-0.655-2.037h-4.85l-0.605,1.964
			c0.565,0.227,0.985,0.493,1.261,0.8l-0.243,2.013h-5.528l-0.242-2.013c0.291-0.371,0.832-0.679,1.625-0.921l4.655-13.918h3.321
			L95.861,34.94z M90.939,30.794l-0.921-2.959c-0.372-1.131-0.582-2.157-0.631-3.079l-0.024-0.412h-0.339
			c0,0.986-0.203,2.134-0.606,3.443l-0.945,3.007H90.939z M112.374,35.038c0.76,0.259,1.276,0.558,1.552,0.896l-0.242,1.867h-4.098
			l-2.789-5.94c-0.259-0.598-0.558-0.897-0.897-0.897h-1.575v3.88c1.18,0.259,1.915,0.574,2.206,0.945l-0.242,2.013h-6.547
			l-0.242-2.013c0.209-0.274,0.654-0.541,1.333-0.8V23.908c-0.663-0.242-1.107-0.517-1.333-0.824l0.242-2.013h6.183
			c2.264,0.032,3.944,0.396,5.044,1.091c1.099,0.695,1.648,1.965,1.648,3.808c0,1.099-0.344,2.021-1.03,2.764
			c-0.688,0.744-1.548,1.31-2.582,1.697c0.808,0.34,1.341,0.752,1.6,1.236L112.374,35.038z M108.979,26.042
			c0-0.856-0.275-1.459-0.824-1.807c-0.55-0.347-1.351-0.521-2.401-0.521h-1.43v4.607h1.382c1.099,0,1.919-0.166,2.461-0.497
			C108.708,27.493,108.979,26.899,108.979,26.042z M115.114,21.095v3.467l1.527,0.194c0.21-0.161,0.412-0.501,0.606-1.019h2.909
			v11.251c-0.679,0.259-1.124,0.525-1.333,0.8l0.242,2.013h5.674l0.242-2.013c-0.242-0.274-0.688-0.541-1.333-0.8V23.738h2.909
			c0.194,0.518,0.396,0.857,0.606,1.019l1.527-0.194v-3.467H115.114z"/>
	</g>
</g>
</svg>
