<?xml version="1.0" encoding="utf-8"?>
<!-- Generator: Adobe Illustrator 18.1.1, SVG Export Plug-In . SVG Version: 6.00 Build 0)  -->
<svg version="1.1" id="Layer_1" xmlns="http://www.w3.org/2000/svg" xmlns:xlink="http://www.w3.org/1999/xlink" x="0px" y="0px"
	 width="55px" height="55px" viewBox="0 0 55 55" style="enable-background:new 0 0 55 55;" xml:space="preserve">
<style type="text/css">
	.st0{opacity:0.4;}
	.st1{opacity:0.3;}
	.st2{opacity:0.2;}
	.st3{opacity:0.1;}
	.st4{opacity:0.05;}
	.st5{fill:url(#);}
	.st6{fill:#73420E;}
	.st7{fill:#F4C990;}
	.st8{fill:#AA772D;}
	.st9{fill:#C18C36;}
	.st10{opacity:0.25;}
	.st11{fill:url(#SVGID_1_);}
	.st12{fill:#730000;}
	.st13{fill:url(#SVGID_2_);}
	.st14{opacity:0.05;fill:#993300;}
	.st15{fill:url(#SVGID_3_);}
	.st16{fill:url(#SVGID_4_);}
	.st17{fill:#990000;}
	.st18{fill:url(#SVGID_5_);}
	.st19{fill:url(#SVGID_6_);}
	.st20{fill:url(#SVGID_7_);}
	.st21{fill:url(#SVGID_8_);}
	.st22{fill:url(#SVGID_9_);}
	.st23{fill:#262626;}
	.st24{fill:url(#SVGID_10_);}
	.st25{fill:url(#SVGID_11_);}
	.st26{fill:url(#SVGID_12_);}
	.st27{fill:#333333;}
	.st28{fill:url(#SVGID_13_);}
	.st29{fill:url(#SVGID_14_);}
	.st30{fill:url(#SVGID_15_);}
	.st31{fill:url(#SVGID_16_);}
	.st32{fill:#086700;}
	.st33{fill:url(#SVGID_17_);}
	.st34{fill:url(#SVGID_18_);}
	.st35{fill:url(#SVGID_19_);}
	.st36{fill:url(#SVGID_20_);}
	.st37{fill:url(#SVGID_21_);}
	.st38{fill:url(#SVGID_22_);}
	.st39{fill:url(#SVGID_23_);}
	.st40{fill:url(#SVGID_24_);}
	.st41{fill:url(#SVGID_25_);}
	.st42{fill:url(#SVGID_26_);}
	.st43{fill:url(#SVGID_27_);}
	.st44{fill:url(#SVGID_28_);}
	.st45{fill:url(#SVGID_29_);}
	.st46{fill:url(#SVGID_30_);}
	.st47{fill:url(#SVGID_31_);}
	.st48{fill:url(#SVGID_32_);}
	.st49{fill:url(#SVGID_33_);}
	.st50{fill:url(#SVGID_34_);}
	.st51{fill:url(#SVGID_35_);}
	.st52{fill:url(#SVGID_36_);}
	.st53{fill:url(#SVGID_37_);}
	.st54{fill:url(#SVGID_38_);}
	.st55{fill:url(#SVGID_39_);}
	.st56{fill:url(#SVGID_40_);}
	.st57{fill:url(#SVGID_41_);}
	.st58{fill:url(#SVGID_42_);}
	.st59{fill:url(#SVGID_43_);}
	.st60{opacity:0.45;}
	.st61{fill:url(#SVGID_44_);}
	.st62{fill:url(#SVGID_45_);}
	.st63{fill:url(#SVGID_46_);}
	.st64{fill:url(#SVGID_47_);}
	.st65{opacity:0.35;fill:url(#SVGID_48_);}
	.st66{fill:url(#SVGID_49_);}
	.st67{fill:#FFFFFF;}
	.st68{fill:#666666;}
	.st69{fill:#FFFF00;}
	.st70{fill:#99FF00;}
	.st71{opacity:0.75;}
	.st72{fill:#FF0000;}
	.st73{display:none;fill:url(#SVGID_50_);}
	.st74{display:none;fill:url(#SVGID_51_);}
	.st75{fill:url(#Inside_Line_1_);}
	.st76{clip-path:url(#SVGID_52_);}
	.st77{fill:url(#SVGID_53_);}
	.st78{fill:#999999;}
	.st79{fill:url(#SVGID_54_);}
	.st80{opacity:0.5;fill:#FFFFFF;}
	.st81{fill:url(#SVGID_55_);}
	.st82{fill:url(#SVGID_56_);}
	.st83{opacity:0.15;fill:#FFFFFF;}
	.st84{fill:url(#SVGID_57_);}
	.st85{fill:url(#SVGID_58_);}
	.st86{fill:url(#SVGID_59_);}
	.st87{fill:url(#SVGID_60_);}
	.st88{fill:url(#SVGID_61_);}
	.st89{fill:url(#SVGID_62_);}
	.st90{fill:url(#SVGID_63_);}
	.st91{fill:url(#SVGID_64_);}
	.st92{fill:url(#SVGID_65_);}
	.st93{fill:url(#SVGID_66_);}
	.st94{fill:url(#SVGID_67_);}
	.st95{fill:url(#SVGID_68_);}
	.st96{fill:url(#SVGID_69_);}
	.st97{fill:url(#SVGID_70_);}
	.st98{fill:url(#SVGID_71_);}
	.st99{fill:url(#SVGID_72_);}
	.st100{fill:url(#SVGID_73_);}
	.st101{fill:url(#SVGID_74_);}
	.st102{fill:url(#SVGID_75_);}
	.st103{fill:url(#SVGID_76_);}
	.st104{fill:url(#SVGID_77_);}
	.st105{fill:url(#SVGID_78_);}
	.st106{fill:url(#SVGID_79_);}
	.st107{fill:url(#SVGID_80_);}
	.st108{fill:url(#SVGID_81_);}
	.st109{fill:url(#SVGID_82_);}
	.st110{fill:#00CC00;}
	.st111{fill:url(#SVGID_83_);}
	.st112{fill:url(#SVGID_84_);}
	.st113{fill:url(#SVGID_86_);}
	.st114{fill:url(#SVGID_87_);}
	.st115{fill:url(#SVGID_88_);}
	.st116{fill:url(#SVGID_89_);}
	.st117{fill:#1B1B1B;}
	.st118{fill:url(#SVGID_90_);}
	.st119{fill:url(#SVGID_91_);}
	.st120{fill:url(#SVGID_92_);}
	.st121{fill:#FF9900;}
	.st122{fill:url(#SVGID_93_);}
	.st123{fill:url(#SVGID_94_);}
	.st124{fill:url(#SVGID_95_);}
	.st125{fill:url(#SVGID_96_);}
	.st126{fill:url(#SVGID_97_);}
	.st127{fill:url(#SVGID_98_);}
	.st128{fill:url(#SVGID_99_);}
	.st129{fill:url(#SVGID_100_);}
	.st130{fill:url(#SVGID_101_);}
	.st131{fill:url(#SVGID_102_);}
	.st132{fill:url(#SVGID_103_);}
	.st133{fill:url(#SVGID_104_);}
	.st134{fill:url(#SVGID_105_);}
</style>
<g>
	<path class="st10" d="M40.674,6.268H11.326c-4.442,0-8.056,3.614-8.056,8.057v0.909v8.488v5.278v14.673
		c0,4.443,3.614,8.057,8.056,8.057h29.349c4.442,0,8.056-3.615,8.056-8.057V29.001v-5.278v-8.488v-0.909
		C48.73,9.883,45.117,6.268,40.674,6.268z"/>
	<path d="M43.674,3.268H14.326c-4.442,0-8.056,3.614-8.056,8.057v0.909v8.488v5.278v14.673c0,4.443,3.614,8.057,8.056,8.057h29.349
		c4.442,0,8.056-3.615,8.056-8.057V26.001v-5.278v-8.488v-0.909C51.73,6.883,48.117,3.268,43.674,3.268z"/>
	<path class="st27" d="M43.674,5.989H14.326c-3.435,0-6.243,2.81-6.243,6.246v13.767h41.835V12.235
		C49.917,8.799,47.11,5.989,43.674,5.989z"/>
	<path class="st68" d="M14.326,5.989h29.349c3.435,0,6.243,2.81,6.243,6.246v-0.909c0-3.434-2.807-6.244-6.243-6.244H14.326
		c-3.435,0-6.243,2.81-6.243,6.244v0.909C8.083,8.799,10.89,5.989,14.326,5.989z"/>
	<g>
		<path d="M42.922,34.9c-0.758,1.231-1.669,2.298-2.786,3.261c-0.299,0.259-0.684,0.402-1.082,0.402
			c-0.394,0-0.775-0.141-1.075-0.396c-0.627-0.532-0.77-1.429-0.337-2.131c2.825-4.596,1.859-10.343-2.153-12.812
			c-1.243-0.765-2.682-1.17-4.159-1.17c-2.063,0-4.158,0.804-5.871,2.229l3.334,2.742c0.487,0.4,0.706,1.056,0.56,1.669
			c-0.15,0.616-0.646,1.099-1.263,1.231l-13.087,2.836c-0.521,0.111-1.032-0.026-1.418-0.352c-0.394-0.329-0.609-0.814-0.591-1.329
			l0.478-13.204c0.022-0.626,0.406-1.196,0.979-1.452c0.555-0.253,1.253-0.162,1.732,0.231l3.193,2.626
			c2.562-3.754,6.747-5.975,11.325-5.975c2.649,0,5.271,0.751,7.583,2.173C44.917,19.564,46.998,28.275,42.922,34.9z"/>
		<path class="st67" d="M37.826,17.225c-2.173-1.337-4.637-2.044-7.125-2.044c-4.496,0-8.587,2.288-10.945,6.119
			c-0.06,0.097-0.106,0.195-0.162,0.292l-3.966-3.261c-0.143-0.118-0.32-0.179-0.499-0.179c-0.109,0-0.219,0.023-0.323,0.069
			c-0.272,0.123-0.452,0.389-0.462,0.688l-0.477,13.204c-0.009,0.242,0.095,0.475,0.281,0.631c0.143,0.119,0.322,0.183,0.504,0.183
			c0.055,0,0.111-0.006,0.166-0.018l13.088-2.835c0.294-0.064,0.526-0.29,0.597-0.583s-0.032-0.6-0.265-0.792l-4.111-3.38
			c1.968-1.974,4.557-3.137,7.202-3.137c1.639,0,3.236,0.449,4.616,1.299c4.422,2.721,5.516,9.007,2.439,14.012
			c-0.203,0.33-0.135,0.759,0.16,1.01c0.147,0.125,0.328,0.187,0.509,0.187c0.183,0,0.366-0.064,0.513-0.191
			c1.048-0.904,1.902-1.904,2.612-3.057C46.003,29.228,44.05,21.055,37.826,17.225z"/>
	</g>
</g>
</svg>
